<svg width="196" height="196" viewBox="0 0 196 196" fill="none" xmlns="http://www.w3.org/2000/svg">
<g clip-path="url(#clip0_484_2093)">
<rect width="196" height="196" rx="98" fill="#856A45"/>
<path d="M132.051 127.863C128.241 115.746 115.098 108.943 102.693 112.664L102.563 112.699C102.442 112.738 101.75 112.858 101.535 112.924C86.7383 117.395 78.1271 109.539 74.2675 102.365C73.5193 100.973 73.0571 99.5512 72.2514 98.3781C72.2175 98.329 72.187 98.2799 72.1566 98.2308C70.4262 95.3066 67.761 93.0508 64.5911 91.8275C61.4211 90.6041 57.9314 90.4847 54.6852 91.4884C33.9214 97.9719 46.4058 130.711 57.5477 143.715C73.4346 162.254 102.551 160.842 113.857 157.35C114.317 157.208 116.151 156.651 116.488 156.536C127.684 152.724 135.86 139.979 132.051 127.863ZM115.15 143.566C97.259 158.984 72.8608 146.929 63.9668 138.333C52.1342 126.9 50.0148 115.596 51.7194 106.934C52.1985 104.504 54.3094 102.182 55.6755 101.32C57.5153 100.099 59.7132 99.5335 61.914 99.7153C64.1147 99.8972 66.19 100.816 67.8044 102.322L67.8958 102.409C69.3178 103.727 70.1794 105.815 70.6043 107.682C70.7502 108.283 70.9282 108.875 71.1375 109.457C73.8798 116.681 84.6359 123.819 94.5607 120.843C95.6947 120.504 96.7947 120.059 97.8464 119.516C98.5131 119.167 99.21 118.88 99.9286 118.658L100.098 118.605C100.391 118.498 100.688 118.399 100.988 118.307C108.927 115.927 117.165 120.339 119.778 128.036C122.04 134.689 119.211 140.065 115.15 143.566Z" fill="#F1F1F1"/>
<path d="M74.0305 126.693C73.4051 126.812 72.7578 126.702 72.2067 126.384C71.6555 126.065 71.237 125.559 71.0275 124.958C70.6652 123.861 71.5759 121.776 74.3098 119.584C75.3779 118.727 76.3869 119.306 76.4241 120.384C76.502 122.661 76.2464 126.279 74.0305 126.693Z" fill="#F1F1F1"/>
<path d="M89.3758 130.033C89.004 130.554 88.4591 130.925 87.8387 131.08C87.2184 131.235 86.5631 131.164 85.9902 130.88C84.9423 130.352 84.0807 128.246 84.4345 124.808C84.5733 123.465 85.7075 123.181 86.5116 123.919C88.2128 125.473 90.6454 128.214 89.3758 130.033Z" fill="#F1F1F1"/>
<path d="M162.488 122.121L162.364 121.739L156.981 104.941C155.94 101.689 152.548 99.712 149.135 100.406H149.116L148.935 100.438C148.685 100.486 148.427 100.53 148.18 100.574L147.877 100.626L147.236 100.731C147.127 100.75 147.021 100.767 146.912 100.782L146.276 100.878L145.968 100.924L145.27 101.019L145.032 101.049C144.398 101.131 143.765 101.203 143.132 101.268L142.939 101.286L142.189 101.356L141.927 101.378C141.697 101.398 141.467 101.415 141.236 101.432L140.967 101.452C140.728 101.469 140.488 101.484 140.249 101.498L140.026 101.511L139.142 101.557H139.095C138.449 101.585 137.806 101.605 137.163 101.615H136.994C136.733 101.615 136.473 101.615 136.21 101.615H136.012C135.758 101.615 135.504 101.615 135.251 101.615H135.064C134.782 101.615 134.499 101.605 134.218 101.598H134.132C133.482 101.581 132.832 101.554 132.183 101.52L131.249 101.464L131.122 101.454L130.299 101.393L130.152 101.381L129.305 101.305L129.211 101.296C128.73 101.251 128.25 101.2 127.77 101.142C127.29 101.085 126.813 101.024 126.336 100.96H126.302C126.003 100.917 125.705 100.875 125.407 100.829L125.277 100.809L124.451 100.68L124.354 100.663C124.047 100.613 123.741 100.56 123.435 100.504C122.499 100.336 121.568 100.149 120.64 99.9422H120.608C120.32 99.8779 120.033 99.8119 119.746 99.7442L119.624 99.7154C119.376 99.6561 119.125 99.5969 118.878 99.5343L118.734 99.4987C118.452 99.4276 118.17 99.3548 117.888 99.2803L117.844 99.2702C117.072 99.0659 116.304 98.8481 115.541 98.6168C115.11 98.4864 114.68 98.3544 114.251 98.2156L114.033 98.1462C113.921 98.114 113.811 98.0768 113.695 98.0378L113.258 97.8905L112.466 97.618L112.389 97.5909C111.218 97.1779 110.058 96.7344 108.911 96.2604L108.836 96.2282C108.579 96.1233 108.328 96.0149 108.069 95.9066C107.914 95.8389 107.758 95.7712 107.597 95.7085C107.531 95.6814 107.467 95.651 107.402 95.6205C107.306 95.5731 107.208 95.5308 107.111 95.4885C106.842 95.3683 106.575 95.2481 106.309 95.1245L106.285 95.1144C105.875 94.9265 105.469 94.7335 105.063 94.5371L105.017 94.5168C104.597 94.312 104.179 94.1055 103.763 93.8922L103.707 93.8651L102.96 93.4774L102.844 93.4148L102.126 93.0305L102.028 92.9781L101.307 92.5786L101.234 92.5379C100.829 92.3122 100.426 92.0803 100.025 91.8422C99.6246 91.6041 99.229 91.3626 98.8385 91.1177L98.8114 91.1007C98.566 90.9484 98.3205 90.796 98.0768 90.6403L97.965 90.5709L97.3082 90.1477L97.1813 90.0648C96.9612 89.9209 96.7429 89.777 96.5262 89.6297L96.4229 89.5603C96.1758 89.3944 95.9297 89.2251 95.6849 89.0525C94.9231 88.5254 94.1715 87.9832 93.43 87.4257L93.3302 87.3512C93.1237 87.1938 92.9154 87.0347 92.7106 86.8755L92.5803 86.7757L91.981 86.3051L91.8608 86.2103L91.2226 85.7024L91.16 85.6516C90.624 85.2115 90.0941 84.764 89.5705 84.3092C89.4012 84.1569 89.2218 84.0045 89.0491 83.8505L88.9695 83.7777C88.7709 83.6017 88.574 83.4245 88.3787 83.2462L88.2552 83.1328L87.705 82.6249L87.5781 82.5064L87.016 81.9698L86.9229 81.8801C86.2571 81.2391 85.6048 80.5828 84.9661 79.9114L84.9136 79.8555C84.724 79.6558 84.5355 79.4554 84.3482 79.2546L84.2365 79.1327C84.0672 78.9499 83.8979 78.7659 83.7286 78.5808L83.6034 78.442C83.4352 78.2558 83.2659 78.069 83.0955 77.8817L82.9872 77.7598C82.8032 77.5488 82.6193 77.3355 82.4353 77.1199L82.3981 77.0759C81.9918 76.5986 81.5912 76.1156 81.1962 75.6269L81.1844 75.6117C80.9993 75.386 80.8159 75.1557 80.6342 74.921L80.5394 74.7974C80.3837 74.5977 80.2296 74.3979 80.0773 74.1982L80.0536 74.1677L79.9605 74.0441C79.8115 73.8478 79.6637 73.6508 79.517 73.4534L79.4069 73.3044C79.2495 73.0911 79.0955 72.8778 78.9397 72.6628L78.872 72.568C78.3292 71.8119 77.8016 71.0422 77.2892 70.259L77.2165 70.1456C77.0743 69.9273 76.9321 69.7089 76.7933 69.4888C76.7577 69.4347 76.7239 69.3805 76.69 69.3195C76.558 69.1108 76.4276 68.902 76.299 68.6932L76.194 68.5239C76.062 68.3073 75.9305 68.0889 75.7996 67.8688L75.7183 67.7351C75.5626 67.4727 75.4086 67.2103 75.2562 66.9446C74.2789 65.2518 73.3732 63.5059 72.5393 61.707C72.4242 61.4582 72.3107 61.2094 72.2007 60.9571L72.1889 60.9317C72.0805 60.6914 71.9756 60.451 71.8689 60.2089L71.8435 60.1514L71.5998 59.5775C71.5811 59.5352 71.5625 59.4929 71.5456 59.4505L71.5083 59.3642C71.4135 59.1391 71.3221 58.9122 71.229 58.6871L71.1833 58.5737C71.1055 58.3807 71.0293 58.1877 70.9531 57.993L70.838 57.7764C70.2855 56.9858 69.5179 56.3703 68.6262 56.0027C67.7345 55.6352 66.7561 55.531 65.807 55.7027L64.6779 56.0413L36.4184 64.5052L36.3879 64.5154C33.7624 65.1688 32.6858 66.3521 32.833 68.3462C32.9702 70.2083 39.6178 79.1598 50.1588 75.7589C51.3293 75.373 52.5494 75.1581 53.7814 75.1208C60.0193 74.9769 68.2785 78.5707 72.2566 85.5585C72.2921 85.6229 72.3632 85.7718 72.4005 85.8345C73.2942 87.3817 73.6921 89.1236 74.4927 90.9365C78.6232 100.299 88.6394 110.944 107.622 106.732C107.9 106.669 108.936 106.526 109.043 106.514C123.513 104.978 133.46 111.714 142.33 124.073C146.608 130.429 157.116 135.88 160.929 134.699C166.017 133.123 163.982 127.11 162.488 122.121ZM36.5961 64.4172H36.6114L36.5809 64.4257L36.5961 64.4172Z" fill="#F1F1F1"/>
<path d="M151.879 92.7411C152.309 92.3521 152.617 91.8473 152.767 91.2873C152.917 90.7273 152.903 90.1359 152.725 89.584L152.556 89.0508L136.441 37.8014C135.782 35.7091 133.51 34.5326 131.362 35.1759L78.9244 50.9121L78.1406 51.1474C77.8871 51.2202 77.6474 51.3346 77.4314 51.486C76.909 51.8584 76.5175 52.3861 76.3126 52.994C76.1078 53.6019 76.1 54.259 76.2904 54.8716C76.3293 54.9782 76.37 55.0849 76.4106 55.1915C87.3833 84.3584 119.113 100.872 149.993 93.5452C150.213 93.4927 150.433 93.4402 150.652 93.3844C151.06 93.2886 151.442 93.1029 151.77 92.841C151.808 92.8037 151.843 92.7733 151.879 92.7411ZM94.2239 63.9179C94.0546 64.0177 89.87 66.4774 87.2834 62.2251C84.7188 58.01 88.6884 56.6202 88.9187 56.5441L88.9407 56.5356L113.527 44.471C116.151 43.1828 118.382 46.758 116.005 48.4457L94.234 63.9111L94.2239 63.9179ZM101.1 76.9118C94.8367 70.7974 102.041 65.8172 102.041 65.8172L119.97 50.582C122.702 48.2595 126.697 51.3573 125.001 54.4755L113.828 75.0565C111.589 79.5204 107.367 83.0261 101.1 76.9118ZM125.39 87.5324C118.28 85.3622 121.547 78.3913 121.547 78.3913L128.826 56.9825C130.191 52.9756 136.251 53.9236 136.264 58.1454C136.298 68.4461 136.38 78.8788 136.569 81.506C136.975 87.1041 132.506 89.7025 125.39 87.5324Z" fill="#F1F1F1"/>
<path d="M38.0487 93.5841C37.4242 93.478 36.8598 93.1478 36.4613 92.6555C36.0627 92.1631 35.8573 91.5424 35.8836 90.9095C35.9479 89.7601 37.5645 88.1333 40.923 87.0448C42.235 86.6199 42.9645 87.5154 42.6023 88.5345C41.8371 90.6928 40.2679 93.9734 38.0487 93.5841Z" fill="#F1F1F1"/>
<path d="M33.8081 84.1163C33.5698 83.5326 33.5555 82.8814 33.768 82.2878C33.9804 81.6942 34.4046 81.2 34.9592 80.9C35.9884 80.3363 38.2601 80.7967 41.0008 82.9838C42.0706 83.8387 41.688 84.9187 40.6131 85.1658C38.3431 85.6872 34.6612 86.1561 33.8081 84.1163Z" fill="#F1F1F1"/>
</g>
<defs>
<clipPath id="clip0_484_2093">
<rect width="196" height="196" rx="98" fill="white"/>
</clipPath>
</defs>
</svg>
