<?xml version="1.0" encoding="UTF-8"?>
<svg id="home" xmlns="http://www.w3.org/2000/svg" viewBox="0 0 48 48">
  <defs>
    <style>
      .cls-1 {
        fill: none;
        stroke: #6c8c42;
        stroke-linecap: round;
        stroke-miterlimit: 10;
        stroke-width: 2px;
      }

      .cls-2 {
        fill: #6c8c42;
        stroke-width: 0px;
      }
    </style>
  </defs>
  <g id="_圖層_3" data-name="圖層 3">
    <path class="cls-2" d="m21.54,44.69v-4.21c0-.87,1.1-1.57,2.46-1.57s2.46.7,2.46,1.57v4.21"/>
    <path class="cls-1" d="m33.31,10.91c.15.67.23,1.36.23,2.08l.48,7.83"/>
    <path class="cls-1" d="m18.69,5.59c1.55-1.18,3.49-1.87,5.59-1.87h0c2.1,0,4.03.7,5.59,1.87"/>
    <path class="cls-1" d="m14.38,20.82l.63-7.83c0-.71.08-1.41.23-2.08"/>
    <path class="cls-1" d="m33.67,33.52H14.5c-.62,0-1.14.47-1.19,1.07l-.76,9.19c-.06.77.56,1.43,1.36,1.43h20.18c.79,0,1.41-.64,1.36-1.4l-.59-9.19c-.04-.61-.56-1.09-1.19-1.09Z"/>
    <path class="cls-1" d="m34.54,28.25l.13.97c.04.29-.41.53-.99.53H14.54c-.58,0-1.03-.25-.98-.54l.17-.96"/>
    <g>
      <path class="cls-2" d="m26.8,15.58c-.24.9-.95,1.61-1.85,1.85l8.27,8.27c.51.51,1.34.51,1.85,0,.51-.51.51-1.34,0-1.85l-8.27-8.27Z"/>
      <path class="cls-2" d="m23.61,12.39L15.34,4.12c-.51-.51-1.34-.51-1.85,0s-.51,1.34,0,1.85l8.27,8.27c.24-.9.95-1.61,1.85-1.85Z"/>
      <path class="cls-2" d="m21.76,15.58l-8.27,8.27c-.51.51-.51,1.34,0,1.85s1.34.51,1.85,0l8.27-8.27c-.9-.24-1.61-.95-1.85-1.85Z"/>
      <path class="cls-2" d="m26.8,14.24l8.27-8.27c.51-.51.51-1.34,0-1.85-.51-.51-1.34-.51-1.85,0l-8.27,8.27c.9.24,1.61.95,1.85,1.85Z"/>
      <rect class="cls-2" x="22.97" y="13.6" width="2.62" height="2.62" rx="1.31" ry="1.31" transform="translate(-3.43 21.53) rotate(-45)"/>
    </g>
  </g>
</svg>