<svg width="92" height="76" viewBox="0 0 92 76" fill="none" xmlns="http://www.w3.org/2000/svg">
<path d="M80.9233 1.67184L81.308 1.98864L80.9233 1.67185L69.8335 15.1384L70.2194 15.4562L69.8334 15.1384C68.6103 16.624 69.4538 18.8769 71.352 19.1936L77.7241 20.2566C76.5937 39.8017 68.0427 47.2694 60.7092 48.8333C60.3531 46.1211 59.5188 43.6153 58.4112 41.4835C56.6617 38.1161 54.0592 35.364 51.2598 34.4458C49.7946 33.9651 48.1661 33.9653 46.7002 34.8325C45.2704 35.6782 44.3188 37.1586 43.7582 38.9773C42.3629 43.5036 44.2885 47.5273 47.6437 50.0587C50.093 51.9066 53.3417 53.0192 56.8416 53.1532C56.5139 57.1573 54.7887 61.4641 50.781 65.4258C43.3125 72.8085 32.8237 71.9771 23.4321 65.7546C14.0422 59.533 6.36496 48.2199 5.17904 35.9402C5.07293 34.8407 4.09569 34.0355 2.99612 34.1416C1.89677 34.2478 1.09147 35.2252 1.19759 36.3246L1.69528 36.2766L1.19759 36.3246C2.51119 49.929 10.9368 62.2738 21.2228 69.0891C31.5052 75.902 44.267 77.4894 53.5929 68.2705C58.5386 63.3818 60.6 57.9421 60.8681 52.8768C70.6618 51.1571 80.3551 41.8189 81.6911 20.9184L88.5593 22.0642C90.4575 22.3809 91.9867 20.5239 91.312 18.7217L90.8437 18.897L91.312 18.7216L85.1943 2.38446C84.5195 0.582114 82.1468 0.186271 80.9233 1.67184ZM47.5808 40.1556L47.5808 40.1556C47.9603 38.9245 48.442 38.4496 48.7368 38.2752C48.9964 38.1217 49.3814 38.0392 50.0131 38.2465C51.4131 38.7057 53.3534 40.4247 54.8617 43.3277L55.3054 43.0972L54.8617 43.3277C55.7382 45.0146 56.4112 46.9947 56.7183 49.1434C54.0762 48.992 51.7324 48.1327 50.0528 46.8656C47.7576 45.1339 46.7789 42.7568 47.5808 40.1556Z" fill="#eb6328" stroke="white"/>
</svg>
