<?xml version="1.0" encoding="UTF-8"?>
<svg id="_圖層_3" data-name="圖層 3" xmlns="http://www.w3.org/2000/svg" viewBox="0 0 200 200">
  <defs>
    <style>
      .cls-1 {
        fill: #76612a;
        stroke-width: 0px;
      }
    </style>
  </defs>
  <g id="_圖層_2" data-name="圖層 2">
    <path class="cls-1" d="m104,88.11c1.33,1,.69,2.39.43,3.65s-1.24,1.24-2.19,1.39c-1.42.34-2.92-.12-3.9-1.2-.83-.82-1.07-2.06-.63-3.14.35-1.28,1.27-1.42,2.26-1.51,1.43-.13,2.93-.62,4.03.81Z"/>
    <path class="cls-1" d="m96.21,80.32c.91.94.88,3.76,0,4.64s-3.71.77-4.54,0-.8-3.76-.07-4.55,3.77-.95,4.61-.09Z"/>
    <path class="cls-1" d="m70.82,98.53c1.22,1.2,1.36,3.38.3,4.39s-3.2.76-4.34-.37c-1.29-.91-1.6-2.71-.69-4s2.71-1.6,4-.69c.27.19.5.42.69.69l.04-.02Z"/>
    <path class="cls-1" d="m111.22,107.44c-.93-1.4-.93-3.21,0-4.61.88-.84,3.85-.77,4.64.12s.53,3.87-.34,4.63-3.52.66-4.3-.14Z"/>
    <path class="cls-1" d="m105.45,175.05c-1.24-.99-1.44-2.8-.45-4.03s2.8-1.44,4.03-.45c.18.14.34.31.48.49,1.14,1.16,1.3,2.97.37,4.31-.88,1.01-3.28.85-4.43-.31Z"/>
    <path class="cls-1" d="m135.06,144.81c-1.11,1.1-3.32,1.26-4.31.31s-.82-3.27.36-4.43c1.06-1.2,2.9-1.3,4.09-.24.05.04.09.08.14.13,1.09,1.2,1.01,3.06-.19,4.15-.03.03-.06.05-.09.08Z"/>
    <path class="cls-1" d="m111.9,167.42c-1.16-1.18-1.27-3.28-.23-4.24,1.32-.94,3.12-.84,4.32.26,1.17,1.23,1.23,3.15.12,4.44-1.11,1.05-2.91.85-4.21-.46Z"/>
    <path class="cls-1" d="m117.61,147.32c1.02,1.28,1.05,3.08.09,4.4-1.29,1-3.09,1.03-4.42.09-1.02-1.28-1.06-3.09-.09-4.41,1.29-1,3.09-1.03,4.42-.08Z"/>
    <path class="cls-1" d="m108.85,95.67c1.22,1.21,1.44,3.21.46,4.23s-3.36.93-4.48-.18c-1.11-1.2-1.19-3.03-.2-4.33,1.24-1.08,3.13-.96,4.22.28Z"/>
    <path class="cls-1" d="m77.13,164.12c.83.81.85,3.71.05,4.49-1.36.88-3.13.86-4.46-.07-1-.95-1.1-3.49-.19-4.41,1.39-.93,3.21-.94,4.6,0Z"/>
    <path class="cls-1" d="m97.78,144.34c-1.24,1.25-3.17,1.46-4.16.46-1.02-1.35-1.05-3.21-.05-4.58.93-.95,3.72-1,4.6-.1s.68,3.14-.39,4.22Z"/>
    <path class="cls-1" d="m77.83,152.62c-.87.85-3.64.88-4.48.06s-.81-3.46.12-4.43,3.69-1.08,4.54-.11.7,3.65-.18,4.48Z"/>
    <path class="cls-1" d="m84.25,155.72c.91.87.87,3.71-.06,4.62s-3.29.72-4.31-.24-1.06-3.53-.29-4.34,3.76-.92,4.66-.04Z"/>
    <path class="cls-1" d="m125.21,108.78c-.98-1.3-.98-3.1,0-4.4,1.31-.97,3.1-.97,4.41,0,.98,1.23,1.03,2.95.14,4.24-1.3,1.09-3.18,1.16-4.55.16Z"/>
    <path class="cls-1" d="m86.49,167.39c-1.25-1.09-1.38-2.98-.3-4.23,1.34-.94,3.16-.84,4.38.25,1,1,1,3.66,0,4.56s-2.89.62-4.08-.58Z"/>
    <path class="cls-1" d="m131.54,102.51c-1.43-1.43-1.55-2.93-.33-4.16,1.09-1.17,2.92-1.23,4.08-.15.05.05.1.1.15.15,1.23,1.13,1.33,3.04.22,4.29-1.36,1.36-2.66,1.27-4.12-.13Z"/>
    <path class="cls-1" d="m92.82,175.1c-1.42-1.4-1.54-3-.34-4.19,1.07-1.17,2.89-1.25,4.06-.17.06.06.12.11.17.17,1.24,1.2,1.36,3.14.29,4.49-1.24,1.05-3.1.92-4.18-.3Z"/>
    <path class="cls-1" d="m84.32,110.61c1.43,1.41,1.56,3,.34,4.21-1.19,1.21-3.14,1.23-4.36.04-1.2-1.18-1.23-3.1-.07-4.32,1.03-1.11,2.76-1.18,3.87-.16.08.07.15.15.22.23Z"/>
    <path class="cls-1" d="m124.75,148.44c1.44-1.42,3-1.5,4.17-.22,1.14,1.12,1.16,2.95.04,4.09-.06.06-.11.11-.17.16-1.13,1.17-2.99,1.2-4.16.07-.04-.04-.08-.08-.12-.13-1.31-1.41-1.25-2.49.24-3.97Z"/>
    <path class="cls-1" d="m122.14,110.45c1.02,1.36.96,3.25-.14,4.55-1.26.84-2.91.78-4.11-.15-1.05-1.27-1.09-3.08-.11-4.4,1.29-.97,3.07-.97,4.36,0Z"/>
    <path class="cls-1" d="m71.38,145c-1.22,1.12-3.1,1.12-4.32,0-1.2-1.16-1.06-2.74.38-4.16s2.8-1.41,4-.22c1.04,1.28,1.02,3.13-.06,4.38Z"/>
    <path class="cls-1" d="m91.38,147.33c1.1,1.23,1.14,3.08.1,4.36-1.27,1.03-3.09,1.05-4.38.05-1.07-1.24-1.04-3.08.05-4.3,1.21-1.02,2.97-1.06,4.23-.11Z"/>
    <path class="cls-1" d="m107.11,144.34c-1.41-1.39-1.56-2.83-.43-4,1.2-1.24,3.18-1.27,4.42-.07,1.24,1.2,1.27,3.18.06,4.42h0c-1.1,1.12-2.69.99-4.05-.35Z"/>
    <path class="cls-1" d="m103.13,178.74c1.42,1.43,1.4,2.78,0,4.1-1.04,1.09-2.77,1.13-3.86.09-.08-.08-.16-.16-.23-.25-1.15-.94-1.33-2.63-.4-3.78.12-.15.25-.28.4-.4,1.24-1.26,2.69-1.17,4.09.24Z"/>
    <path class="cls-1" d="m148.5,108c-.98-3.83-2.41-7.52-4.28-11-1.77-3.52-4.11-6.72-6.94-9.46l-6-6c-.46-.56-1.08-.96-1.78-1.15-1.24-.21-1.02-.74-.46-1.58,1.13-1.63,2.34-3.29,3.34-5,1.45-2.37,2.71-4.86,3.74-7.44,1.19-3.26,2.15-6.6,2.88-10,.59-3.26.97-6.55,1.15-9.86.15-2.76-.04-5.52-.56-8.23-.08-.65-.35-1.24-1-1.38-1.17-.35-2.42-.35-3.59,0-2.24.82-2.41.75-2-1.61.55-3.41.49-6.9-.18-10.29-.41-2.23-2.11-3.36-4.23-2.61-5.46,1.9-10.64,4.53-15.41,7.8-.44-1.54-.88-3.11-1.34-4.69-1-3.29-2.18-6.53-3.54-9.69-.99-2.37-2.34-4.54-3.34-6.91-.43-1.01-1.12-1.89-2-2.55-1.9-1.48-4.52-.41-5.42,2-.9,2.41-2.27,4.63-3.34,7-1.85,4.14-3.35,8.43-4.49,12.82-.39,1.45-.9,1.72-2.21.94-.24-.14-.46-.32-.64-.53-1.27-1.47-3.18-1.89-4.76-2.89-2.23-1.15-4.53-2.15-6.89-3-2.39-1.02-5.08.06-5.45,2.31-.48,2.64-.59,5.33-.33,8,.36,1.67.42,3.4.17,5.09-.88-.84-2.03-1.32-3.24-1.35-2.67-.44-4.22.44-4.36,4.44-.23,4.86.07,9.73.89,14.52.54,3.02,1.36,5.99,2.43,8.86.68,1.95,1.5,3.86,2.44,5.7.85,1.81,1.86,3.55,3,5.19.79.91,1.47,1.92,2,3,.69,1.54.46,2.43-1.22,3-1.08.42-2.06,1.06-2.86,1.9-4.09,3.69-7.52,8.04-10.16,12.88-1.19,2.14-2.23,4.36-3.14,6.64-1.93,5.42-2.85,11.14-2.72,16.89,0,1.34,0,2.68,0,4.02h.14c.14.86.77,1.63,1.9,1.63h92.74c1.13,0,1.76-.77,1.9-1.63h.3c.02-5.29.18-10.57-1.14-15.78Zm-19.83-61.47c1.12-.57,2.22-1.09,3.36-1.66,1.14-.57,1.81-.27,1.81.91.01,3.46-.35,6.92-1.09,10.3-.39,2.16-.98,4.29-1.75,6.35-.95,2.55-2.13,5.01-3.53,7.34-.92,1.41-1.37,3.12-2.63,3.92-2.57,2.64-2.53,2.52-5.84,1.37-3.39-1.31-6.94-2.12-10.56-2.41-1.26-.07-1.83-.25-1.16-1.74,1.28-2.88,2.57-5.72,4.11-8.51,2.06-3.72,5.26-6.26,8.06-9.26.52-.61,1.15-1.04,1.67-1.61,2.09-2.28,4.82-3.62,7.55-5Zm-15.19-8.57c2.59-2.4,5.52-4.42,8.68-6,1.12-.58,2.3-1.03,3.37-1.68.89-.54,1.39-.38,1.39.68.16,2.98-.1,5.96-.78,8.86-.21.7-.79,1.03-1.21,1.59-2.87.96-4.63,3.59-7.44,4.72-.54.28-1.03.65-1.43,1.11-1.82,1.77-3.68,3.51-5.39,5.39-1.91,2.35-3.62,4.86-5.1,7.51-1.59,2.66-2.93,5.47-4,8.39-.09.27-.33.46-.61.48-.41.01-.57-.27-.66-.61-.43-1.47-.99-2.9-1.65-4.28-.44-.97.1-1.97.34-2.89.92-3.83,2.32-7.53,4.18-11,1.07-1.9,1.91-4.02,3.68-5.58,2.35-2.07,4.34-4.52,6.63-6.69Zm-17.95-7.48c.85-4.21,2.56-8.1,4.12-12.05.33-.86,1.17-1.47,1.25-2.68,1.37.78,1.28,2.07,1.69,3.04,2.29,4.55,3.83,9.45,4.54,14.49.17,1.05-.21,2.11-1,2.81-1.63,1.41-3.12,2.98-4.42,4.7-.39.59-.75.58-1.18.12-.81-.66-1.49-1.47-2-2.38-.29-.79-.8-1.49-1.47-2-2.3-1.6-2-3.72-1.53-6.05Zm-19.88-.54c2.01.76,3.98,1.63,5.89,2.62,5.45,2.58,9.52,6.77,13.6,11,2.25,2.33,2.39,3.86,1.08,6.78-.53,1.08-1,2.18-1.41,3.31-.5,1.57-.95,1.71-2.11.57-2.4-2.37-4.65-4.91-7.2-7.11-2.13-1.84-4.48-3.41-7-4.68-1.2-.47-2.04-1.57-2.16-2.86-.44-2.6-.68-5.23-.74-7.87.05-.55.05-1.09.05-1.76Zm-6.04,27.93c-1.06-4-1.46-8.14-1.2-12.26.03-.79.29-1.17,1.4-.79,2.72.95,5.05,2.76,7.72,3.86.63.35,1.18.83,1.63,1.39,1.16,1.19,2.51,2.18,4,2.93,1.3.62,2.34,1.67,2.95,2.97.76,1.53,1.77,2.91,3,4.1,1.57,1.63,2.37,3.72,3.37,5.72.91,1.8,1.71,3.66,2.39,5.56.42,1.19,0,1.29-1,1.39-4.17.33-8.26,1.35-12.11,3-1.93.88-3.14-.05-4.26-1.48-1.54-2.1-2.93-4.3-4.16-6.6-1.63-3.1-2.89-6.39-3.73-9.79Zm-10.07,53.13c.73-3.32,1.81-6.55,3.21-9.65,1.79-4.21,4.72-7.45,7.72-10.72,1.69-2.05,3.68-3.84,5.89-5.31,4.67-2.97,9.87-5.03,15.31-6.07,6.2-1.08,12.54-1.08,18.74,0,3.31.47,6.53,1.46,9.53,2.93,2.38,1.27,4.72,2.57,7,4.08,1.86,1.21,3.59,2.59,5.18,4.13,2.59,2.39,4.35,5.67,6.29,8.84,4,6.59,5.12,13.83,5.12,21.33,0,.28,0,.57,0,.85h-14.37c.54-1,.27-2.3-.69-3.27-1.35-1.38-2.92-1.42-4.19-.14-1.03,1.04-1.16,2.24-.43,3.41h-5.38c.31-.93.09-1.85-.67-2.62-1.13-1.16-2.97-1.21-4.17-.13-.79.72-1.1,1.77-.93,2.75h-20.59c.13-.91-.2-1.87-.97-2.49-.19-.27-.42-.5-.69-.69-1.29-.91-3.09-.61-4,.69-.53.75-.64,1.67-.39,2.49h-7.37c.3-1.09.03-2.29-.81-3.13-1.37-1.37-3.2-1.49-4.36-.28,0,0-.02.02-.02.03-.84.97-.94,2.32-.37,3.38h-14.4c0-.14,0-.27,0-.41-.11-3.35.16-6.71.8-10Z"/>
    <path class="cls-1" d="m106.38,84.49c-1.49-1.55-1.49-2.53,0-4.06,1.2-1.05,3-1.02,4.16.07,1.17,1.07,1.26,2.89.19,4.07-.09.1-.19.19-.3.28-1.26,1.15-2.72,1.04-4.05-.36Z"/>
    <path class="cls-1" d="m122.51,155.88c1.17,1.17,1.17,3.07,0,4.24-.02.02-.04.04-.06.06-1.29,1.22-2.77,1-4.29-.58-1.03-.87-1.16-2.42-.29-3.45.13-.15.27-.28.43-.4,1.23-1.03,3.04-.98,4.21.13Z"/>
    <path class="cls-1" d="m125.51,168.33c-1.42-1.41-1.46-2.59-.12-4,.99-1.15,2.73-1.27,3.88-.28.12.1.23.22.33.34,1.15.95,1.32,2.65.38,3.8-.08.1-.17.19-.27.28-1.28,1.28-2.83,1.24-4.2-.14Z"/>
    <path class="cls-1" d="m93.4,99.59c-1.4-1.41-1.45-2.88-.12-4.18.99-1.11,2.69-1.2,3.8-.21.11.09.2.2.29.3,1.32,1.31,1.29,2.68-.09,4-1.56,1.62-2.35,1.62-3.88.09Z"/>
    <path class="cls-1" d="m149.63,136.09c.01-1.01-.63-2.02-1.93-2.02H54.83c-1.3,0-1.94,1.01-1.93,2.02h-.25c0,2.19,0,4.39.01,6.58.05,6.27.6,12.33,2.92,18.27,1.26,3.47,2.94,6.78,5,9.84,1.83,2.68,3.91,5.19,6.21,7.48,1.05,1,2.53,1.36,3.46,2.53,2.41,3,5.95,4.48,9.26,6,4.78,2.24,9.93,3.6,15.2,4,8.14.61,16.13.23,24-2.39,5.16-1.72,9.78-4.67,14-7.61,4.22-2.94,7.32-7.17,10-11.52,1.41-2.32,2.62-4.75,3.62-7.27,1.89-4.4,2.97-9.11,3.19-13.9.12-4,.15-8.01.15-12.01h-.05Zm-8.55,22.46c-.79,2.44-1.97,4.73-3.48,6.8-.26.42-.46.88-.61,1.35-.68,1.48-1.58,2.58-3.44,2.58-2.02,0-3.01.99-3.08,3.07-.04,1.04-.49,2.02-1.24,2.74-2.27,2.44-5.15,3.82-8,5.36-7.31,3.96-15.23,4.46-23.23,4.29-5.6-.17-11.1-1.44-16.21-3.74-1.74-.66-3.35-1.62-4.75-2.86-1.3-1.28-3.35-1.63-4.51-3.23-.54-.55-.79-1.33-.68-2.09.3-1.58-1.47-3.66-3.06-3.5-1.59.16-2.16-.29-2.77-1.84-.61-1.55-1.81-2.81-2.61-4.33-2.04-3.76-3.39-7.85-4-12.08-.59-4.32-.72-8.66-.72-13.01h2.88c.8.43,1.76.42,2.54,0h37.05c.75.36,1.6.34,2.33,0h34.43c.57.22,1.25.22,1.92,0h3.72c0,1.92,0,3.83-.02,5.75.08,5.02-.75,10.02-2.45,14.74Z"/>
    <path class="cls-1" d="m87,103.1c.9-1.08,2.51-1.23,3.59-.33.15.13.29.27.41.43,1.28,1.31,1.24,2.72-.12,4s-2.69,1.25-4-.12-1.34-2.6.12-3.98Z"/>
    <path class="cls-1" d="m77,104.67c1.3,1.37,1.23,2.64-.22,4s-2.7,1.2-4-.21-1.2-2.69.22-4,2.61-1.21,4,.21Z"/>
  </g>
  <g id="_圖層_5" data-name="圖層 5">
    <path class="cls-1" d="m170.11,81.29c-.48-2.43-1.25-4.77-2.27-7.02-4.02-8.93-13.43-15.51-23.45-14.09-1.32.19-2.76.4-3.63,1.53-.95,1.25-.65,2.93-.6,4.39.12,3.37.25,6.74.37,10.11.02.48.17.87.41,1.17-.14.27-.22.56-.21.88.05,1.08.88,2,2,2,.33,0,.65.01.97.04.07,0,.45.06.27.03.11.02.21.03.32.05.61.12,1.21.29,1.79.5.03.01.23.09.32.13.09.04.22.1.25.12.27.13.53.27.79.42.28.16.56.34.82.52.13.09.26.19.4.28-.38-.26.05.05.11.09.48.4.93.83,1.35,1.3.11.12.21.24.32.37.03.03.05.06.07.09.18.25.36.5.52.76.17.27.33.56.48.84.07.14.14.29.21.44.02.04.03.06.04.08,0,.02,0,.02.01.04.23.61.42,1.23.55,1.87.11.56.54,1,1.06,1.26.27.78,1.02,1.25,1.88,1.34,3.12.34,6.24.68,9.36,1.02,1.21.13,2.57.47,3.78.2,1.46-.33,2.27-1.49,2.4-2.94.22-2.54-.21-5.3-.7-7.79Zm-3.29,6.84c-.59-.05-1.22-.2-1.69-.25-1.07-.12-2.13-.23-3.2-.35-1.93-.21-3.87-.42-5.8-.63-.28-1.25-.77-2.44-1.4-3.54.53-.18,1.06-.35,1.59-.53.49-.16.93-.46,1.2-.92.25-.43.36-1.06.2-1.54-.16-.48-.46-.95-.92-1.2-.46-.24-1.03-.37-1.54-.2-1.04.35-2.09.7-3.13,1.04-.02,0-.04.02-.06.02-.27-.25-.55-.49-.84-.72.2-.16.38-.33.51-.56.35-.69.7-1.39,1.05-2.08.15-.23.23-.48.24-.74.06-.27.05-.53-.04-.8-.06-.26-.18-.49-.36-.68-.14-.22-.33-.39-.56-.52-.46-.25-1.03-.37-1.54-.2l-.48.2c-.3.18-.54.42-.72.72-.35.69-.7,1.39-1.05,2.08-.13.21-.2.44-.23.68-1.13-.49-2.32-.85-3.54-1.02,0-.06.01-.12.01-.19-.07-2.01-.15-4.01-.22-6.02-.04-.96-.07-1.93-.11-2.89-.03-.86.16-2.17-.09-3.01.31-.03.66-.16.96-.2.76-.11,1.53-.13,2.3-.12,1.54.03,3.04.29,4.51.73,6.3,1.9,10.95,7.07,13.14,13.16.64,1.78,1.11,3.62,1.41,5.49.15.89.24,1.79.31,2.7.03.47.06.95.07,1.42,0,.2,0,.41.01.61,0,.01,0,.03,0,.05Z"/>
    <path class="cls-1" d="m27.14,153.92c-1,2.26-1.71,4.63-2.16,7.06-1.81,9.62,2.13,20.41,11.17,24.98,1.19.6,2.5,1.25,3.85.82,1.5-.48,2.21-2.02,3-3.25,1.83-2.83,3.65-5.67,5.48-8.5.26-.41.36-.82.33-1.2.27-.14.5-.34.67-.6.58-.92.42-2.14-.5-2.78-.27-.19-.53-.38-.78-.59-.05-.04-.34-.31-.21-.18-.08-.08-.16-.15-.23-.23-.43-.44-.83-.93-1.18-1.44-.02-.03-.14-.21-.19-.29-.05-.09-.12-.21-.14-.24-.15-.26-.28-.52-.41-.79-.14-.29-.26-.59-.38-.9-.06-.15-.11-.31-.16-.46.16.43-.02-.07-.04-.13-.17-.6-.29-1.21-.36-1.83-.02-.16-.04-.32-.05-.48,0-.04,0-.08,0-.11,0-.31,0-.61,0-.92.02-.32.04-.65.09-.97.02-.16.05-.32.07-.48,0-.04,0-.06.01-.09,0-.02,0-.02.01-.04.16-.63.36-1.24.62-1.84.23-.52.13-1.13-.15-1.64.22-.8-.13-1.61-.78-2.18-2.36-2.06-4.73-4.13-7.09-6.19-.91-.8-1.84-1.86-2.98-2.33-1.38-.57-2.72-.08-3.65,1.04-1.63,1.96-2.86,4.47-3.89,6.79Zm6.61-3.72c.45.37.89.86,1.24,1.18.81.71,1.62,1.41,2.43,2.12,1.46,1.28,2.93,2.56,4.39,3.84-.49,1.19-.77,2.44-.88,3.7-.54-.16-1.07-.32-1.61-.48-.5-.15-1.02-.15-1.51.07-.45.21-.9.67-1.05,1.15-.15.49-.17,1.04.07,1.51.24.46.63.89,1.15,1.05,1.05.31,2.11.62,3.16.94.02,0,.04,0,.06.01.08.36.17.71.28,1.07-.25.01-.5.06-.74.17-.68.37-1.37.74-2.05,1.11-.25.1-.46.26-.62.47-.2.18-.34.41-.43.67-.1.25-.13.5-.1.76,0,.26.05.51.17.74.24.47.63.89,1.15,1.05l.51.11c.35.03.68-.03,1-.18.68-.37,1.37-.74,2.05-1.11.23-.1.42-.24.57-.43.64,1.05,1.42,2.02,2.32,2.86-.04.05-.08.09-.12.15-1.09,1.69-2.17,3.37-3.26,5.06-.52.81-1.04,1.62-1.57,2.43-.46.72-1.37,1.69-1.65,2.52-.28-.15-.63-.25-.91-.39-.68-.35-1.33-.77-1.95-1.22-1.25-.9-2.32-1.98-3.27-3.18-4.07-5.16-4.93-12.07-3.24-18.31.49-1.83,1.17-3.6,1.98-5.31.39-.82.83-1.61,1.29-2.39.24-.41.49-.81.75-1.2.11-.17.22-.34.34-.51,0-.01.02-.02.03-.04Z"/>
  </g>
</svg>