<?xml version="1.0" encoding="UTF-8"?>
<svg id="_圖層_2" data-name="圖層 2" xmlns="http://www.w3.org/2000/svg" viewBox="0 0 200 200">
  <defs>
    <style>
      .cls-1 {
        fill: #5b82bc;
        stroke-width: 0px;
      }
    </style>
  </defs>
  <path class="cls-1" d="m155.19,116.56c1,2.82,2,5.37,2.77,8,1.25,4.05.38,8-1,11.8-1.56,4.2-4.38,7.81-8.08,10.34-2.8,2.05-6.06,3.38-9.5,3.85-1.8.24-1.89.34-1.08,2,1.31,2.41,2.2,5.03,2.62,7.74,1,8.16-1.86,14.79-8,20.06-4.1,3.6-9.42,5.52-14.88,5.35-5.94-.09-11.6-2.54-15.73-6.81-1-1-1.61-.91-2.57,0-5.17,5-11.37,7.52-18.58,6.66-6.7-.74-12.72-4.43-16.41-10.08-2.18-3.23-3.48-6.97-3.75-10.86-.3-3.71.45-7.42,2.17-10.72,1.93-3.79,1.43-2.92-1.59-3.55-4.82-.99-9.17-3.55-12.36-7.29-3.79-4.19-5.79-9.7-5.58-15.35.13-3.23,1.05-6.38,2.68-9.17.3-.53.54-1.1.92-1.9-1.5-.43-2.91-.87-4.34-1.25-6.51-1.69-11.87-6.3-14.51-12.48-1.52-3.18-2.21-6.69-2-10.2.23-6.75,3.55-13.01,9-17,2.04-1.34,4.2-2.49,6.45-3.43,1.03-.33,1.8-1.2,1.99-2.27.43-3.34,1.52-6.56,3.22-9.46.32-.52.45-1.14.37-1.75-1.16-6.53-3.64-12.4-8.6-17-.11-.1-.24-.17-.34-.27-1-1-1.88-2-1.23-3.48s1.8-1.74,3.28-1.73c5.89,0,11.72,1.18,17.14,3.48,2.87,1.4,5.65,2.96,8.33,4.68.48.27.95.56,1.65,1,.06-.52.06-1.03,0-1.55-1.35-5.52-3.29-10.89-5.78-16-.29-.44-.47-.94-.51-1.46.06-.94,0-2.17.61-2.71.77-.59,1.78-.76,2.7-.48,3.55,1.41,7.02,3,10.4,4.77,5.5,2.88,10.47,6.68,14.7,11.23,2.58,2.86,4.84,6,7.22,9.07.73.94,1.39,1.74,2.79,1.44.84-.17,1.7-.17,2.54,0,1.15.27,2.33-.33,2.79-1.42,4.51-7.09,10.51-13.11,17.59-17.64,4.59-2.98,9.48-5.48,14.59-7.45,1-.57,2.27-.34,3,.55.51.87.64,1.91.38,2.89-.7,2.14-1.83,4.14-2.62,6.26-1,2.78-1.93,5.62-2.85,8.45-.35,1.08-.65,2.18-.88,3.29-.05.4.06.8.32,1.11.12.14.69-.06,1-.21,3.36-1.61,6.64-3.42,10.13-4.61,4.47-1.47,9.17-2.11,13.87-1.89,1.08-.13,2.11.52,2.44,1.56.43,1.1.14,2.34-.74,3.13-3.37,3.06-5.98,6.88-7.62,11.13-.78,1.45-.59,3.24.48,4.49,2.29,3.1,3.72,6.75,4.13,10.58.09,1.13.9,2.06,2,2.32,4.85,1.53,8.99,4.75,11.67,9.08,3.49,5.18,4.59,11.61,3,17.65-1.23,4.9-4.04,9.26-8,12.4-3.09,2.34-6.69,3.94-10.5,4.67-.45.13-.97.33-1.31.44Zm-105.39-5.56h3.13c1.29.06,2.31,1.09,2.35,2.38.15,1.38-.75,2.17-1.55,3-3.09,3.16-4.77,7.43-4.66,11.84.13,2.74.78,5.44,1.93,7.93,2.1,4.6,6.25,7.94,11.19,9,2.28.62,4.67.73,7,.32,1.2-.32,2.45.26,3,1.37.63,1.18.37,2.63-.63,3.52-2.97,2.84-4.81,6.67-5.18,10.77-.41,3.61.37,7.25,2.21,10.38,2.3,4.03,6.13,6.97,10.62,8.15,3.91,1.08,8.09.73,11.76-1,3.09-1.46,5.73-3.75,7.62-6.6,1.48-2,3.37-2.06,4.83,0,2.43,3.65,6.07,6.33,10.27,7.57,9.2,2.6,18.77-2.75,21.37-11.94.35-1.25.57-2.54.63-3.84-.07-2.58-.51-5.14-1.3-7.6-.62-2.38-2.25-4.23-4-6-.99-.84-1.21-2.29-.51-3.38.53-.74,1.73-1.06,2.69-1.42.47-.06.95-.02,1.4.12,4.23.52,8.5-.64,11.89-3.23,3.59-2.62,6.06-6.5,6.91-10.87.74-3.37.32-6.89-1.19-10-1.11-2.14-2.45-4.15-4-6-.78-.86-.98-2.1-.53-3.17.46-1.04,1.56-1.64,2.68-1.46.85.07,1.71.07,2.56.13,3.53.26,7.05-.66,10-2.62,7.5-4.75,10.18-14.41,6.2-22.35-2.74-5.26-6.93-8.51-12.85-9.39-1.45-.21-2.92-.26-4.38-.46-2-.27-2.82-1.67-2.21-3.58.36-1.13,1.3-1.27,2.23-1.46s1.61-.56,1.45-1.69c-.36-2.64-1.39-5.15-3-7.27-3.15-4.13-7.25-6.75-12.57-7.06-3.51-.34-7.04.43-10.09,2.2-2.3,1.41-4.29,3.28-5.84,5.49-1.92,2.69-3.68,2.76-5.56.1-3.16-4.45-7.29-7.22-12.79-7.74-3.6-.41-7.24.34-10.39,2.14-2.49,1.48-4.61,3.5-6.21,5.91-1.47,2.1-3,2.17-4.75.29-.2-.2-.39-.42-.56-.65-1.99-3.03-4.87-5.36-8.25-6.66-4.6-1.84-9.78-1.58-14.17.71-4.7,2.34-8.03,6.74-9,11.9-.34,1.01.08,2.11,1,2.64.74.6,1.21,1.47,1.34,2.41.12,1.13-.81,1.86-1.9,2.18-.59.17-1.21.22-1.8.37-2.24.55-4.67.73-6.67,1.75-8.31,4-12,13.83-8.38,22.31,2.67,6.77,9.4,11.04,16.66,10.56Zm82.46-78.33c-.09-.2-.23-.71-.35-.7-.55-.01-1.1.1-1.6.34-2.19,1.3-4.4,2.58-6.47,4-5.3,3.68-9.87,8.33-13.46,13.69-.48.51-.45,1.31.06,1.78.1.09.2.16.32.22,2.27,1.67,4.53,3.35,6.84,5,.36.25,1.23.35,1.44.12,2.3-2.39,5.01-4.35,8-5.77.39-.25.67-.63.78-1.08,1.07-4.5,2.06-9,3.13-13.51.31-1.38.83-2.66,1.31-4.1h0Zm-61.79-.67c-.17.33-.49.64-.47.94.09.56.23,1.11.42,1.65,1,3.77,2.07,7.53,3,11.31.37,1.42.51,2.9.88,4.32.17.52.53.95,1,1.22,2.78,1.32,5.29,3.14,7.41,5.37.78.89,1.29.53,2,0,2.14-1.6,4.32-3.16,6.49-4.73.79-.57,1.24-1.11.46-2.07-1-1.25-1.86-2.63-2.9-3.85-4.49-5.12-9.8-9.46-15.7-12.85-.76-.46-1.58-.81-2.59-1.31Zm-18,22.3c1.68-1.05,3.41-2.01,5.19-2.87,1.79-.67,3.62-1.24,5.48-1.71-1.87-3.1-13.53-7.85-15.8-6.66l5.13,11.24Zm87.38-4.89c.16.3.19.42.25.45,2.51,1.06,5,2.15,7.54,3.13.47.07.95-.11,1.26-.47,1.12-2,2.15-4,3.16-6,.14-.34.14-.72,0-1.06-.07-.15-.6-.2-.87-.13-2.19.57-4.41,1.07-6.54,1.81-1.65.67-3.26,1.42-4.83,2.26h.03Z"/>
  <path class="cls-1" d="m58.89,78.91c1.43,0,2.61-1.13,2.65-2.56.11-1.44-.97-2.7-2.41-2.82-1.44-.11-2.7.97-2.82,2.41,0,.1,0,.21,0,.31.04,1.42,1.16,2.58,2.58,2.66Zm71.11,32.68c.03-1.38-1.03-2.54-2.41-2.63-1.46.12-2.63,1.25-2.79,2.7.12,1.41,1.27,2.5,2.68,2.55,1.34.05,2.47-.99,2.53-2.33,0-.1,0-.19,0-.29Zm11.08-36.9c-1.4-.04-2.57,1.06-2.62,2.46,0,.04,0,.07,0,.11.08,1.42,1.22,2.55,2.64,2.62,1.43-.07,2.56-1.22,2.61-2.65,0-1.4-1.12-2.54-2.52-2.54-.04,0-.08,0-.12,0h0Zm0,33.06c-1.43,0-2.59,1.17-2.58,2.6,0,0,0,.01,0,.02.11,1.42,1.26,2.54,2.68,2.61,1.42-.12,2.53-1.28,2.57-2.71-.01-1.41-1.16-2.54-2.57-2.53-.06,0-.12,0-.18,0h.08Zm-37.72-3.61c0-1.44-1.16-2.6-2.6-2.61-1.41.18-2.49,1.32-2.61,2.73.12,1.41,1.29,2.5,2.71,2.52,1.33.03,2.43-1.01,2.46-2.34,0-.1,0-.2-.01-.3h.05Zm-34.28-7.89c1.28.11,2.41-.85,2.52-2.13.01-.15.01-.3,0-.45,0-1.42-1.08-2.61-2.5-2.75-1.47.08-2.62,1.32-2.57,2.8-.11,1.29.84,2.42,2.13,2.53.14.01.29.01.43,0Zm-2.64-15.25c-1.36-.14-2.57.85-2.71,2.21,0,.08-.01.16-.01.23-.04,1.42,1.02,2.64,2.43,2.8,1.41-.09,2.57-1.14,2.78-2.54.08-1.41-.99-2.61-2.39-2.7-.03,0-.06,0-.1,0Zm39,75.33c.07-1.38-.99-2.56-2.37-2.63-.06,0-.12,0-.18,0-1.41.1-2.55,1.19-2.69,2.6.16,1.4,1.27,2.49,2.67,2.64,1.39.06,2.55-1.02,2.61-2.41,0-.06,0-.12,0-.18l-.04-.02Zm-25.2-14.45c-1.4-.04-2.56,1.05-2.61,2.45,0,.04,0,.09,0,.13-.09,1.44,1.01,2.69,2.45,2.78,1.44.09,2.69-1.01,2.78-2.45,0-.11,0-.22,0-.32,0-1.42-1.14-2.57-2.56-2.58-.02,0-.04,0-.06,0Zm-8.5-34.15c-1.41-.04-2.59,1.08-2.63,2.49,0,.03,0,.05,0,.08-.09,1.44,1.01,2.69,2.45,2.78,1.44.09,2.69-1.01,2.78-2.45,0-.11,0-.22,0-.32.01-1.41-1.12-2.56-2.53-2.57-.02,0-.05,0-.07,0Zm31.53-24.49c.12-1.26-.8-2.39-2.06-2.51-.12-.01-.24-.01-.37,0-1.4-.16-2.66.85-2.82,2.25s.85,2.66,2.25,2.82c.14.02.29.02.43.01,1.34.08,2.49-.94,2.57-2.28,0-.09,0-.19,0-.28Zm16.94,58.14c-.06-1.45-1.29-2.57-2.73-2.5-1.32.06-2.4,1.1-2.5,2.42,0,1.44,1.14,2.62,2.57,2.68,1.43-.04,2.59-1.17,2.66-2.6Zm-19.21,24.5c-.1,1.38.94,2.58,2.32,2.68.05,0,.1,0,.16,0,1.45.03,2.66-1.12,2.69-2.57.03-1.45-1.12-2.66-2.57-2.69-1.39-.04-2.55,1.05-2.6,2.44,0,.04,0,.09,0,.13Zm2.66-69.64c1.42.08,2.64-1.01,2.72-2.43,0-.02,0-.04,0-.06.09-1.45-1.01-2.7-2.46-2.79-1.45-.09-2.7,1.01-2.79,2.46,0,.11,0,.22,0,.32.02,1.38,1.13,2.48,2.51,2.49h.02Zm-37.24,5c-1.4-.05-2.58,1.05-2.63,2.45,0,.03,0,.07,0,.1-.09,1.44,1.01,2.69,2.45,2.78,1.44.09,2.69-1.01,2.78-2.45,0-.11,0-.22,0-.32-.01-1.41-1.16-2.54-2.57-2.53-.02,0-.03,0-.05,0l.02-.02Zm26.32,12.95c1.41-.03,2.57-1.1,2.73-2.5-.16-1.37-1.22-2.47-2.58-2.69-1.42.02-2.58,1.16-2.62,2.58-.11,1.34.88,2.51,2.22,2.62.08,0,.15,0,.23,0l.02-.02Zm26.59-.32c0-1.42-1.11-2.6-2.53-2.68-1.4.19-2.49,1.32-2.63,2.72.08,1.37,1.2,2.45,2.57,2.49,1.31.11,2.46-.87,2.57-2.18,0-.11.01-.22,0-.33l.02-.02Zm5.25,18.63c.03-1.35-1.04-2.47-2.4-2.5-.06,0-.12,0-.18,0-1.38-.04-2.55,1.01-2.66,2.39.07,1.41,1.16,2.57,2.57,2.72,1.43-.02,2.6-1.16,2.65-2.59l.02-.02Zm10.86-25.74c1.41,0,2.59-1.09,2.69-2.5-.12-1.46-1.27-2.62-2.73-2.75-1.38.07-2.45,1.22-2.44,2.6-.14,1.32.81,2.51,2.13,2.66.11.01.22.02.32.01l.02-.02Zm-63.74-32.07c-1.39-.04-2.55,1.06-2.59,2.45,0,.04,0,.09,0,.13-.09,1.44,1.01,2.69,2.45,2.78,1.44.09,2.69-1.01,2.78-2.45,0-.11,0-.22,0-.32.03-1.39-1.06-2.55-2.46-2.58-.06,0-.12,0-.18,0Zm-10.06,36.52c.1-1.3-.88-2.43-2.18-2.53-.09,0-.19,0-.28,0-1.42-.1-2.65.98-2.75,2.4,0,.02,0,.04,0,.06.12,1.42,1.23,2.55,2.64,2.72,1.41-.09,2.52-1.24,2.57-2.65Zm20.45,5.2c1.42.03,2.61-1.08,2.69-2.5-.18-1.4-1.27-2.5-2.66-2.7-1.41.11-2.49,1.29-2.48,2.71-.11,1.27.83,2.38,2.1,2.49.12.01.24.01.35,0Zm26.83-6.06c.1-1.34-.9-2.51-2.24-2.61-.11,0-.21,0-.32,0-1.32-.04-2.42.99-2.46,2.31,0,.08,0,.15,0,.23-.19,1.38.77,2.65,2.15,2.85,1.38.19,2.65-.77,2.85-2.15.03-.21.03-.42,0-.63h.02Zm21-34.44c.1-1.3-.87-2.45-2.17-2.55-.13-.01-.26-.01-.4,0-1.37.01-2.51,1.06-2.63,2.43.13,1.4,1.21,2.53,2.61,2.71,1.43-.01,2.58-1.16,2.59-2.59Zm-40.55,58.69c.11-1.32-.86-2.48-2.18-2.6-.13-.01-.26-.01-.39,0-1.38,0-2.53,1.08-2.62,2.46.08,1.43,1.22,2.56,2.65,2.64,1.39,0,2.52-1.11,2.54-2.5Zm.86-58.75c-.08,1.37.96,2.54,2.32,2.63.07,0,.14,0,.22,0,1.36-.16,2.42-1.23,2.57-2.59-.02-1.41-1.17-2.55-2.59-2.53-.03,0-.06,0-.08,0-1.23-.12-2.33.78-2.44,2.01-.02.16-.01.32,0,.48Zm12,72.53c.13-1.28-.81-2.42-2.09-2.55-.15-.02-.31-.02-.46,0-1.38.03-2.51,1.1-2.61,2.48.1,1.37,1.18,2.46,2.54,2.58,1.31.13,2.47-.83,2.6-2.13.01-.12.01-.25,0-.38h.01Zm4.34-73.7c-1.34-.13-2.53.84-2.66,2.18,0,.1-.01.19-.01.29-.03,1.38.98,2.56,2.35,2.74,1.44.04,2.64-1.1,2.68-2.54,0,0,0,0,0,0,.09-1.38-.96-2.58-2.34-2.67,0,0-.02,0-.03,0h.01Zm26.36,8.6c-.13,1.27.8,2.4,2.07,2.53.17.02.34.01.51,0,1.37-.11,2.46-1.21,2.55-2.58-.08-1.38-1.2-2.46-2.58-2.5-1.26-.15-2.41.75-2.56,2.01-.02.18-.02.37,0,.55h.01Zm-43.49,39.22c.01-1.36-1.08-2.48-2.44-2.5-1.41.12-2.53,1.24-2.66,2.65.08,1.37,1.22,2.44,2.6,2.43,1.25.14,2.37-.76,2.51-2,.02-.19.02-.39,0-.58Zm29.81-48.78c.11-1.3-.86-2.45-2.16-2.56-.14-.01-.27-.01-.41,0-1.38.01-2.52,1.08-2.61,2.46.07,1.37,1.14,2.49,2.51,2.6,1.38.09,2.57-.95,2.66-2.32,0-.06,0-.12,0-.18Zm2.31,51.28c1.36.08,2.53-.95,2.62-2.31,0-.02,0-.04,0-.07-.07-1.42-1.19-2.56-2.61-2.65-1.36-.03-2.49,1.04-2.52,2.4,0,.03,0,.05,0,.08-.16,1.25.73,2.39,1.98,2.55.18.02.35.02.53,0Zm-31.17,22.35c1.3.11,2.44-.85,2.55-2.15.01-.14.01-.29,0-.43-.11-1.36-1.19-2.45-2.55-2.57-1.36.11-2.44,1.2-2.54,2.57-.13,1.3.82,2.45,2.12,2.58.14.01.28.01.42,0Zm19.19,2.21c1.24.11,2.33-.81,2.44-2.05.01-.15.01-.3,0-.45.06-1.4-1.02-2.58-2.42-2.64-.04,0-.08,0-.12,0-1.37.15-2.42,1.27-2.48,2.64-.13,1.26.79,2.38,2.05,2.51.18.02.36.02.54,0h0Zm28.76-53.33c1.27.14,2.41-.78,2.55-2.04.01-.12.02-.24.01-.36.08-1.41-.99-2.62-2.4-2.71-.03,0-.06,0-.1,0-1.39.06-2.49,1.19-2.51,2.58-.12,1.27.8,2.4,2.07,2.52.12.01.25.01.38,0Zm-56.25-25c-1.38-.05-2.54,1.02-2.6,2.4s1.02,2.54,2.4,2.6h0c1.44.06,2.67-1.06,2.73-2.5.06-1.34-.97-2.48-2.31-2.54-.08,0-.15,0-.23,0v.04Z"/>
  <path class="cls-1" d="m58.89,78.91c-1.42-.08-2.54-1.24-2.58-2.66.02-1.45,1.21-2.6,2.66-2.58,1.45.02,2.6,1.21,2.58,2.66-.02,1.45-1.21,2.6-2.66,2.58Z"/>
  <path class="cls-1" d="m130,111.59c.11,1.34-.89,2.51-2.23,2.61-.1,0-.19,0-.29,0-1.41-.05-2.56-1.14-2.68-2.55.16-1.45,1.33-2.58,2.79-2.7,1.38.09,2.44,1.25,2.41,2.63Z"/>
  <path class="cls-1" d="m141.07,74.69c1.4-.06,2.57,1.03,2.63,2.43,0,.04,0,.07,0,.11-.05,1.43-1.18,2.58-2.61,2.65-1.42-.07-2.56-1.2-2.64-2.62-.02-1.4,1.11-2.55,2.51-2.57.04,0,.07,0,.11,0Z"/>
  <path class="cls-1" d="m141,107.75c1.41-.07,2.6,1.02,2.67,2.43,0,.03,0,.06,0,.09-.04,1.43-1.15,2.59-2.57,2.71-1.42-.07-2.57-1.19-2.68-2.61-.02-1.43,1.13-2.6,2.56-2.62,0,0,.01,0,.02,0Z"/>
  <path class="cls-1" d="m103.31,104.14c.13,1.32-.83,2.5-2.15,2.63-.12.01-.24.02-.35,0-1.42-.02-2.59-1.11-2.71-2.52.12-1.41,1.2-2.55,2.61-2.73,1.44.01,2.59,1.17,2.6,2.61Z"/>
  <path class="cls-1" d="m69.08,96.25c-1.29.13-2.43-.81-2.56-2.1-.01-.14-.01-.29,0-.43-.05-1.48,1.1-2.72,2.57-2.8,1.42.14,2.5,1.33,2.5,2.75.14,1.28-.78,2.43-2.06,2.57-.15.02-.3.02-.45,0Z"/>
  <path class="cls-1" d="m66.44,81c1.41.03,2.52,1.2,2.49,2.6,0,.03,0,.06,0,.1-.21,1.4-1.37,2.45-2.78,2.54-1.41-.16-2.47-1.38-2.43-2.8,0-1.36,1.12-2.46,2.49-2.45.08,0,.16,0,.23.01Z"/>
  <path class="cls-1" d="m105.48,156.35c.06,1.39-1.02,2.55-2.41,2.61-.05,0-.11,0-.16,0-1.4-.15-2.51-1.24-2.67-2.64.14-1.41,1.28-2.5,2.69-2.6,1.38-.03,2.52,1.07,2.55,2.45,0,.06,0,.12,0,.18Z"/>
  <path class="cls-1" d="m80.24,141.88c1.42-.03,2.59,1.1,2.62,2.52,0,.02,0,.04,0,.06.09,1.44-1.01,2.69-2.45,2.78-1.44.09-2.69-1.01-2.78-2.45,0-.11,0-.22,0-.32-.03-1.4,1.08-2.55,2.48-2.58.04,0,.09,0,.13,0Z"/>
  <path class="cls-1" d="m71.74,107.73c1.41-.03,2.57,1.09,2.6,2.5,0,.03,0,.07,0,.1.09,1.44-1.01,2.69-2.45,2.78-1.44.09-2.69-1.01-2.78-2.45,0-.11,0-.22,0-.32-.02-1.41,1.11-2.58,2.52-2.6.04,0,.07,0,.11,0Z"/>
  <path class="cls-1" d="m103.27,83.24c.07,1.34-.95,2.49-2.29,2.56-.09,0-.19,0-.28,0-1.41.08-2.61-1-2.69-2.4s1-2.61,2.4-2.69c.14,0,.29,0,.43.01,1.27-.08,2.36.89,2.44,2.15,0,.12,0,.24,0,.37Z"/>
  <path class="cls-1" d="m120.21,141.38c-.07,1.43-1.23,2.56-2.66,2.6-1.43-.07-2.55-1.25-2.55-2.68.11-1.44,1.37-2.52,2.81-2.42,1.32.1,2.36,1.17,2.42,2.5h-.02Z"/>
  <path class="cls-1" d="m101,165.88c-.03-1.39,1.08-2.54,2.47-2.57.04,0,.09,0,.13,0,1.45.03,2.6,1.24,2.57,2.69-.03,1.45-1.24,2.6-2.69,2.57-1.39-.01-2.5-1.15-2.49-2.53,0-.05,0-.1,0-.16Z"/>
  <path class="cls-1" d="m103.64,96.24c-1.39,0-2.52-1.12-2.53-2.51h0c-.09-1.45,1.01-2.7,2.46-2.79,1.45-.09,2.7,1.01,2.79,2.46,0,.11,0,.22,0,.32-.04,1.42-1.22,2.55-2.65,2.51-.02,0-.05,0-.07,0Z"/>
  <path class="cls-1" d="m66.4,101.26c1.41-.03,2.57,1.09,2.6,2.5,0,.03,0,.05,0,.08.09,1.44-1.01,2.69-2.45,2.78-1.44.09-2.69-1.01-2.78-2.45,0-.11,0-.22,0-.32-.02-1.4,1.1-2.56,2.5-2.58.04,0,.09,0,.13,0Z"/>
  <path class="cls-1" d="m92.72,114.21c-1.34.02-2.44-1.05-2.46-2.4,0-.09,0-.19.01-.28.07-1.4,1.22-2.51,2.62-2.53,1.38.23,2.43,1.37,2.56,2.76-.18,1.38-1.34,2.42-2.73,2.45Z"/>
  <path class="cls-1" d="m119.31,113.89c.09,1.31-.9,2.45-2.21,2.53-.12,0-.25,0-.38,0-1.37-.04-2.49-1.12-2.57-2.49.14-1.4,1.23-2.53,2.63-2.72,1.42.08,2.53,1.26,2.53,2.68Z"/>
  <path class="cls-1" d="m124.56,132.52c-.08,1.42-1.25,2.53-2.67,2.54-1.41-.15-2.5-1.31-2.57-2.72.13-1.37,1.31-2.39,2.68-2.34,1.35-.06,2.5.98,2.56,2.34,0,.06,0,.12,0,.18Z"/>
  <path class="cls-1" d="m135.42,106.78c-1.33.05-2.45-1-2.49-2.33,0-.11,0-.22.01-.32-.01-1.38,1.06-2.53,2.44-2.6,1.46.13,2.61,1.29,2.73,2.75-.1,1.41-1.28,2.5-2.69,2.5Z"/>
  <path class="cls-1" d="m71.7,74.69c1.39-.07,2.57,1.01,2.64,2.4,0,.05,0,.1,0,.14.09,1.44-1.01,2.69-2.45,2.78-1.44.09-2.69-1.01-2.78-2.45,0-.11,0-.22,0-.32-.01-1.39,1.11-2.53,2.5-2.54.03,0,.06,0,.09,0Z"/>
  <path class="cls-1" d="m61.64,111.21c-.05,1.41-1.16,2.56-2.57,2.65-1.41-.17-2.52-1.3-2.64-2.72.06-1.42,1.27-2.53,2.69-2.46.02,0,.04,0,.06,0,1.3-.06,2.41.95,2.46,2.25,0,.09,0,.19,0,.28Z"/>
  <path class="cls-1" d="m82.09,116.41c-1.27.09-2.37-.87-2.45-2.14,0-.12,0-.24,0-.35-.01-1.42,1.07-2.6,2.48-2.71,1.39.2,2.48,1.3,2.66,2.7-.08,1.42-1.27,2.53-2.69,2.5Z"/>
  <path class="cls-1" d="m108.92,110.35c.15,1.38-.84,2.63-2.22,2.78s-2.63-.84-2.78-2.22c-.02-.21-.02-.42,0-.63-.08-1.32.92-2.45,2.23-2.54.08,0,.15,0,.23,0,1.34-.06,2.48.97,2.54,2.31,0,.1,0,.2,0,.3Z"/>
  <path class="cls-1" d="m129.92,75.91c-.01,1.43-1.16,2.58-2.59,2.59-1.4-.18-2.48-1.31-2.61-2.71.12-1.37,1.26-2.42,2.63-2.43,1.3-.11,2.45.85,2.57,2.15.01.13.01.26,0,.4Z"/>
  <path class="cls-1" d="m89.37,134.6c-.01,1.39-1.15,2.52-2.54,2.51-1.43-.08-2.57-1.21-2.65-2.64.08-1.39,1.23-2.47,2.62-2.47,1.32-.1,2.47.89,2.57,2.21,0,.13,0,.26,0,.39Z"/>
  <path class="cls-1" d="m90.23,75.85c-.14-1.23.74-2.34,1.96-2.49.16-.02.32-.02.48,0,1.41-.06,2.61,1.03,2.67,2.45,0,.03,0,.06,0,.08-.15,1.36-1.21,2.43-2.57,2.59-1.37.04-2.51-1.05-2.54-2.41,0-.07,0-.14,0-.22Z"/>
  <path class="cls-1" d="m102.22,148.38c.08,1.31-.92,2.44-2.23,2.52-.13,0-.26,0-.39,0-1.36-.12-2.44-1.21-2.54-2.58.1-1.38,1.23-2.45,2.61-2.48,1.28-.13,2.42.81,2.55,2.09.02.15.02.31,0,.46Z"/>
  <path class="cls-1" d="m106.56,74.68c1.38.08,2.44,1.27,2.36,2.65,0,0,0,.01,0,.02-.04,1.44-1.24,2.58-2.68,2.54,0,0,0,0,0,0-1.37-.18-2.38-1.36-2.35-2.74-.03-1.34,1.04-2.45,2.38-2.48.1,0,.2,0,.29.01Z"/>
  <path class="cls-1" d="m132.92,83.28c-.15-1.26.75-2.41,2.01-2.56.18-.02.36-.02.54,0,1.38.04,2.5,1.12,2.58,2.5-.09,1.37-1.18,2.47-2.55,2.58-1.27.16-2.42-.75-2.57-2.01-.02-.17-.02-.34,0-.51Z"/>
  <path class="cls-1" d="m89.44,122.5c.16,1.24-.71,2.38-1.95,2.55-.19.03-.39.03-.58,0-1.38.01-2.52-1.06-2.6-2.43.15-1.41,1.28-2.51,2.69-2.62,1.36.02,2.45,1.14,2.44,2.5Z"/>
  <path class="cls-1" d="m119.25,73.72c0,1.38-1.11,2.5-2.49,2.51-.06,0-.12,0-.18,0-1.37-.11-2.44-1.23-2.51-2.6.09-1.38,1.23-2.45,2.61-2.46,1.3-.12,2.45.85,2.57,2.15.01.14.01.27,0,.41Z"/>
  <path class="cls-1" d="m121.56,125c-1.25.14-2.38-.77-2.51-2.02-.02-.18-.02-.35,0-.53-.01-1.36,1.08-2.47,2.44-2.48.03,0,.05,0,.08,0,1.42.09,2.54,1.23,2.61,2.65-.05,1.36-1.19,2.43-2.55,2.38-.02,0-.04,0-.07,0Z"/>
  <path class="cls-1" d="m90.39,147.35c-1.3.11-2.44-.86-2.54-2.16-.01-.14-.01-.28,0-.42.1-1.37,1.18-2.46,2.54-2.57,1.36.12,2.44,1.21,2.55,2.57.13,1.3-.82,2.45-2.12,2.58-.14.01-.29.01-.43,0Z"/>
  <path class="cls-1" d="m109.58,149.56c-1.25.17-2.41-.7-2.58-1.96-.02-.18-.03-.36,0-.54.06-1.37,1.11-2.49,2.48-2.64,1.4,0,2.54,1.12,2.54,2.52,0,.04,0,.08,0,.12.14,1.23-.74,2.35-1.98,2.49-.15.02-.3.02-.45,0Z"/>
  <path class="cls-1" d="m138.34,96.23c-1.27.08-2.37-.88-2.46-2.15,0-.13,0-.25,0-.38.02-1.39,1.12-2.52,2.51-2.58,1.41.03,2.53,1.2,2.5,2.61,0,.03,0,.06,0,.1.06,1.27-.93,2.35-2.2,2.41-.12,0-.24,0-.36-.01Z"/>
  <path class="cls-1" d="m82.09,71.19c1.34-.06,2.48.98,2.54,2.32,0,.05,0,.11,0,.16-.06,1.44-1.29,2.56-2.73,2.5-1.38-.05-2.46-1.21-2.4-2.6s1.21-2.46,2.6-2.4h0v.02Z"/>
  <path class="cls-1" d="m28.18,135.79c-4.78.91-9.02,3.05-12.76,6.13-2.98,2.45,1.28,6.68,4.24,4.24,2.95-2.43,6.38-3.88,10.11-4.59,3.79-.72,2.18-6.5-1.6-5.79Z"/>
  <path class="cls-1" d="m46.12,172.11c-3.95,4.29-7.57,8.87-10.84,13.71-2.17,3.2,3.02,6.21,5.18,3.03,2.99-4.41,6.29-8.57,9.91-12.49,2.61-2.84-1.62-7.09-4.24-4.24Z"/>
  <path class="cls-1" d="m169.36,179.48c-2.79-2.93-6.26-5-10.14-6.14-3.71-1.08-5.3,4.7-1.6,5.79,2.92.85,5.4,2.39,7.49,4.59,2.67,2.8,6.91-1.45,4.24-4.24Z"/>
  <path class="cls-1" d="m182.91,130.56c-2.78-.2-5.56-.4-8.34-.6-3.85-.28-3.83,5.72,0,6,2.78.2,5.56.4,8.34.6,3.85.28,3.83-5.72,0-6Z"/>
  <path class="cls-1" d="m188.33,37.68c-3.82,1.25-7.63,2.5-11.45,3.74-3.65,1.19-2.09,6.99,1.6,5.79,3.82-1.25,7.63-2.5,11.45-3.74,3.65-1.19,2.09-6.99-1.6-5.79Z"/>
  <path class="cls-1" d="m108.89,5.32c-2.24,3.56-3.81,7.49-4.59,11.63-.72,3.77,5.07,5.39,5.79,1.6.7-3.69,1.99-7.02,3.99-10.2,2.06-3.28-3.13-6.29-5.18-3.03Z"/>
  <path class="cls-1" d="m28.52,39.05c-3.7-2.85-7.97-4.37-12.57-4.92-1.62-.19-2.98,1.52-3,3-.02,1.78,1.4,2.81,3,3,3.55.42,6.73,1.94,9.54,4.1,1.29,1,3.35.19,4.1-1.08.92-1.54.2-3.12-1.08-4.1Z"/>
</svg>