<?xml version="1.0" encoding="UTF-8"?>
<svg id="_圖層_2" data-name="圖層 2" xmlns="http://www.w3.org/2000/svg" viewBox="0 0 200 200">
  <defs>
    <style>
      .cls-1 {
        fill: #915675;
        stroke-width: 0px;
      }
    </style>
  </defs>
  <g id="_圖層_3" data-name="圖層 3">
    <path class="cls-1" d="m96.8,37.39c-1.87-.92-3.81-1.54-5.82-1.86-.32-.04-.64-.08-.97-.13-.51-.05-1.01-.1-1.53-.11-8.72-2.25-15.71-9.89-16.7-19.01-.19-1.74-1.79-3.66-3.8-2.89-6.65,2.55-10.72,7.77-15.09,13.15-5.26,6.48-10.5,12.96-17.33,17.87-5.99,4.32-11.35,8.08-15.19,14.57-4.29,7.25-7.4,15.33-9.85,23.37-.02.06-.02.12-.04.19-1.73-.95-3.46-1.86-5.13-2.73-2.36-1.24-4.99.8-4.41,3.39.86,3.86,2.25,7.32,4.02,10.82,2.19,4.35,1.4,8.05,1.39,12.79-.01,7.77,1.08,15.49,3.02,23.01-3.85.57-7.34,2.15-9.15,5.51-.94,1.75-.1,3.81,1.79,4.41,9.72,3.06,15.26,11.94,21.18,19.58,5.12,6.61,11.13,12.25,18.33,16.53,14.06,8.37,30.93,11.35,47.08,9.35.45-.06.84-.19,1.18-.39,1.34-.25,2.58-.83,3.75-1.79,1.21-1,1.12-3.22,0-4.24-1.29-1.18-2.95-1.07-4.24,0,.52-.43-.05-.01-.18.08-.02.01-.03.02-.05.02-.08.03-.16.05-.24.07-.06.02-.12.03-.19.04-.22-.02-.97-.08-.25.04-.85-.14-1.76,0-2.47.44-15.83,1.4-32.04-2.04-45.18-11.26-12.48-8.76-18.69-24.96-32.08-32.13,2.42-.69,5.47-.53,7.35-.39,3.89.28,7.74,1.47,11.13,3.4,5.16,2.95,8.73,7.65,14.38,9.83,3.6,1.39,5.16-4.4,1.6-5.79-4.02-1.56-6.88-5.05-10.32-7.53-3.58-2.58-7.78-4.4-12.11-5.28-1.54-.31-3.31-.57-5.16-.7-2.38-8.69-3.47-17.54-3.09-26.55.14-3.41.5-6.42-.96-9.63-.75-1.65-1.52-3.21-2.24-4.79,6.75,3.8,13.15,8.59,14.35,16.54.58,3.81,6.36,2.19,5.79-1.6-1.26-8.33-7.22-13.87-14.03-18.2.42-.34.76-.81.95-1.45,2.23-7.33,5.01-14.57,8.83-21.23,3.89-6.78,9.75-10.19,15.76-14.82,5.17-3.98,9.48-8.84,13.6-13.87,3.58-4.37,7.19-10.11,12.13-13.32,2.62,9.77,10.13,17.41,19.81,20.16.41.25.91.41,1.52.41.02,0,.05,0,.07,0,1.3.29,2.64.5,4,.62.59.18,1.17.4,1.74.68,1.45.71,3.24.39,4.1-1.08.77-1.32.38-3.39-1.08-4.1Z"/>
    <path class="cls-1" d="m51.35,86.89c-3.96,3.91-7.23,8.43-9.65,13.44-1.67,3.46,3.5,6.51,5.18,3.03,2.21-4.59,5.09-8.65,8.71-12.23,2.75-2.72-1.49-6.96-4.24-4.24Z"/>
  </g>
  <g>
    <path class="cls-1" d="m197.16,84.25c-1.84-.53-3.09.43-4.23,1.61-1.41,1.62-3.35,2.68-5.48,2.99-.07.02-.14.04-.21.05-.67.1-1.29-.37-1.38-1.03-1.05-3.48-1.96-7.01-3.28-10.41-2.29-6.12-5.39-11.91-9.21-17.22-2.71-3.68-5.77-7.08-9.14-10.16-2.93-2.43-5.56-5.2-7.84-8.24-2.61-3.8-3.61-7.81-2.07-12.29.39-1.02.52-2.12.9-3.13.09-.25.15-.51.18-.77.29-2.14-1.22-4.11-3.36-4.39-4.31-.59-8.71.14-12.6,2.1-4.29,1.98-8.43,4.3-12.72,6.29-4.14,2.05-8.4,3.85-12.75,5.42-4.72,1.55-9.47,2.98-14.03,4.98-.13-.24-.29-.46-.5-.65-2.31-2.12-5-3.25-8.1-3.6-1.61-.18-3,1.51-3,3,0,1.77,1.38,2.82,3,3,1,.11,2.02.53,2.91,1.12-6.06,3.39-11.68,7.53-16.71,12.32-1.79,1.71-3.46,3.55-5.19,5.33-1.02,1.06-1.74,1.01-2.62-.23-.48-.68-.86-1.44-1.3-2.16-.61-1.22-1.88-1.97-3.25-1.89-1.4.06-2.65.91-3.23,2.19-1.7,4.14-2.32,8.65-1.8,13.09.21,2.38.79,4.79-.44,7.1-.8,1.45-1.53,2.94-2.18,4.47-.44.02-.9.13-1.37.39-2.65,1.47-5.03,3.42-6.96,5.75-1.03,1.25-1.22,3.02,0,4.24,1.06,1.06,3.21,1.26,4.24,0,.07-.09.15-.16.22-.24-1.13,4.17-1.8,8.48-2.61,12.73-.15.86-.46,1.33-1.35,1.32-1.19.04-2.39.03-3.58-.05-.46-.06-.93-.03-1.38.08-2.01.5-3.24,2.55-2.74,4.56.65,2.73,1.94,5.27,3.76,7.41,3.02,3.51,4.99,7.8,5.68,12.38.91,5.78,2.58,11.42,4.97,16.77,2.24,5.5,5.26,10.66,8.96,15.31,2.8,3.44,5.83,6.7,9.05,9.75,3.29,3,6.94,5.58,10.86,7.68,4.22,2.38,8.7,4.29,13.35,5.68,4.19,1.31,8.52,2.08,12.9,2.29,3.12.22,6.25.23,9.36.03,4.12-.49,8.22-1.22,12.26-2.18,5.84-1.34,11.4-3.7,16.42-6.96,4.63-2.94,9.76-5.03,15.13-6.16,2.47-.65,4.87-1.57,7.14-2.75.17-.07.34-.15.5-.25,1.5-.93,1.97-2.9,1.03-4.41-.53-.83-1.26-1.52-2.12-2.01-1.22-.81-1.65-1.76-1.02-2.63,1.86-2.64,3.84-5.16,5.54-7.92,2.21-3.57,4.2-7.28,5.94-11.11,1.8-4.18,3.08-8.61,4.32-12.16.61-3.61,1.24-6.36,1.47-9.15.53-4.07,1.75-8.02,3.62-11.68,1.53-3.21,3.29-6.42,5.02-9.57,2.08-3.78,2.82-7.93,3.59-12.08.23-1.78-.88-3.46-2.61-3.94Zm-7.54,12.96c-1.84,3.51-3.83,6.94-5.5,10.53-1.91,3.93-3.15,8.15-3.67,12.49-.58,5.32-1.85,10.55-3.76,15.55-1.05,2.95-2.26,5.83-3.64,8.64-1.67,3.16-3.5,6.23-5.48,9.2-1.29,1.96-2.88,3.73-4.24,5.65-1.3,1.76-.82,3.67-.15,5.53.5,1.43.3,1.8-1.16,2.26-4.28,1.32-8.7,2.23-12.59,4.62-2.67,1.63-5.37,3.27-8.14,4.66-3.73,1.96-7.73,3.38-11.86,4.21-3.67.81-7.39,1.33-11.13,1.58-7.53.41-15.05-.86-22.02-3.73-2.17-.83-4.29-1.79-6.35-2.87-2.86-1.67-5.59-3.56-8.3-5.47-3.38-2.51-6.41-5.45-9.03-8.75-4.25-5.04-7.63-10.76-10.01-16.91-1.38-3.66-2.51-7.43-3.56-11.2-.62-2.18-.82-4.47-1.31-6.71-.77-3.29-2.23-6.37-4.28-9.05-.6-.82-1.13-1.7-1.79-2.71.96-.33,1.65-.62,2.38-.81,2.04-.37,3.58-2.05,3.78-4.11.67-4.31,1.34-8.61,2.35-12.81,1.38-5.41,3.46-10.62,6.18-15.5,1.32-2.14,1.8-4.69,1.37-7.17-.25-1.54-.29-3.11-.12-4.66.09-1.16.55-1.32,1.62-.79,2.52,1.23,4.23,1.31,6.51-1.39,6.34-7.59,14.04-13.93,22.71-18.7,4.96-2.68,10.22-4.76,15.66-6.22,6.98-1.94,13.48-5.07,19.92-8.33,3.6-1.83,7.38-3.3,11.1-4.87,1.18-.5,1.86-.08,1.61.96-1.27,6.48.97,11.98,4.79,17.02,2.57,3.12,5.42,6.01,8.5,8.62,3.99,3.72,7.44,7.99,10.22,12.69,3.43,5.66,6.05,11.77,7.78,18.16.43,1.58.86,3.16,1.39,4.71,1.16,2.92,4.06,4.78,7.2,4.6,1.14-.08,2.28-.15,3.65-.23-.25.57-.39.93-.64,1.3Z"/>
    <path class="cls-1" d="m172.2,126.71c-1.41,3.93-2.58,7.96-4.28,11.74-2.25,5.02-5.12,9.73-8.54,14.04-3.85,4.92-8.42,9.24-13.55,12.81-5.32,3.75-11.28,6.49-17.59,8.09-5.1,1.27-10.36,1.73-15.6,1.37-4.13-.27-8.21-1.08-12.13-2.42-4.32-1.5-8.41-3.59-12.16-6.2-7.1-5.01-12.88-11.68-16.82-19.43-2.39-4.59-4.17-9.47-5.31-14.51-1.07-4.68-1.65-9.47-1.75-14.27,0-2.64.22-5.28.64-7.89.45-3.41.96-6.84,1.74-10.19,1.3-5.64,3.48-11.04,6.45-16,1.95-3.36,4.1-6.59,6.45-9.67,2.91-3.67,6.25-6.97,9.97-9.82,4.53-3.53,9.55-6.37,14.9-8.44,3.48-1.3,7.1-2.22,10.78-2.73,6.77-.99,13.67-.53,20.25,1.36,4.28,1.26,8.36,3.09,12.14,5.45,4.16,2.56,7.93,5.72,11.17,9.38,6.73,7.75,11.38,17.09,13.49,27.13,1.09,5.06,1.57,10.23,1.42,15.4-.16,4.97-.72,9.93-1.69,14.81Zm-98.71-23.99c-.49,2.11-.86,4.25-1.11,6.4-.28,4-.47,8-.39,11.99.1,2.8.46,5.59,1.07,8.33.9,4.13,2.24,8.15,4.02,11.98,2.84,6.17,6.96,11.67,12.09,16.13,3.77,3.26,8.08,5.83,12.73,7.59,5.62,2.11,11.65,2.92,17.63,2.37,3.88-.31,7.69-1.15,11.34-2.51,5.7-2.09,10.96-5.2,15.53-9.2,3.12-2.64,5.92-5.65,8.34-8.95,1.76-2.48,3.38-5.06,4.83-7.73,1.18-2.17,1.98-4.54,2.99-6.82,2.53-6.1,3.91-12.62,4.07-19.22.08-3.79-.13-7.59-.62-11.35-.61-4.96-1.97-9.8-4.04-14.35-2.33-5.47-5.66-10.46-9.82-14.72-4.42-4.54-9.79-8.05-15.72-10.28-5.56-2.05-11.51-2.84-17.41-2.29-3.83.31-7.6,1.12-11.22,2.43-9.23,3.26-16.59,9.06-22.73,16.54-2.7,3.33-4.98,6.98-6.79,10.87-2,4.1-3.59,8.39-4.77,12.8Z"/>
    <path class="cls-1" d="m109.71,100.05c-.46,1.91-2.37,3.08-4.28,2.63-.02,0-.04,0-.06-.01-1.84-.65-2.94-2.53-2.61-4.46.61-1.82,2.51-2.88,4.38-2.45,1.8.32,3,2.04,2.68,3.84-.03.15-.07.3-.11.45Z"/>
    <path class="cls-1" d="m153.42,88.39c-.49,1.88-2.4,3.01-4.29,2.53-1.84-.64-2.95-2.51-2.63-4.43.61-1.87,2.57-2.95,4.47-2.46,1.79.37,2.94,2.12,2.57,3.91-.03.15-.07.3-.12.44Z"/>
    <path class="cls-1" d="m101.65,87c-.48,1.9-2.41,3.04-4.3,2.56-.02,0-.05-.01-.07-.02-1.79-.66-2.86-2.5-2.56-4.38.59-1.87,2.54-2.97,4.45-2.49,1.78.33,2.95,2.05,2.62,3.83-.03.17-.08.34-.14.51Z"/>
    <path class="cls-1" d="m147.34,98.11c-.51,1.87-2.42,2.98-4.3,2.5-1.82-.67-2.89-2.54-2.56-4.45.62-1.86,2.59-2.92,4.49-2.42,1.78.4,2.9,2.17,2.5,3.94-.03.14-.07.29-.13.43Z"/>
    <path class="cls-1" d="m158.86,112.05c-.49,1.88-2.4,3.01-4.28,2.54-1.84-.64-2.96-2.51-2.64-4.43.6-1.87,2.56-2.95,4.46-2.46,1.79.36,2.95,2.1,2.59,3.88-.03.16-.08.32-.13.47Z"/>
    <path class="cls-1" d="m145.77,120.02c-.48,1.88-2.39,3.01-4.27,2.55-1.85-.63-2.97-2.5-2.65-4.43.6-1.87,2.56-2.95,4.47-2.47,1.79.36,2.94,2.1,2.59,3.89-.03.16-.07.31-.13.46Z"/>
    <path class="cls-1" d="m96.68,122.96c-.45,1.9-2.36,3.08-4.26,2.62-.02,0-.05-.01-.07-.02-1.8-.64-2.9-2.46-2.62-4.35.56-1.89,2.49-3.01,4.41-2.57,1.8.33,2.99,2.05,2.67,3.85-.03.16-.07.31-.12.46Z"/>
    <path class="cls-1" d="m149.42,135.81c-.5,1.87-2.41,3-4.28,2.52-1.85-.64-2.96-2.53-2.63-4.45.62-1.87,2.58-2.93,4.48-2.45,1.79.38,2.94,2.13,2.56,3.92-.03.15-.08.31-.13.45Z"/>
    <path class="cls-1" d="m136.3,143.8c-.5,1.87-2.41,3-4.28,2.52-1.84-.64-2.95-2.52-2.63-4.44.61-1.87,2.57-2.94,4.48-2.46,1.79.37,2.93,2.11,2.57,3.9-.03.16-.08.32-.14.48Z"/>
    <path class="cls-1" d="m92.42,140.62c-.49,1.88-2.4,3.01-4.28,2.54-1.84-.64-2.96-2.51-2.64-4.43.61-1.87,2.57-2.95,4.47-2.46,1.79.37,2.94,2.12,2.57,3.91-.03.15-.07.3-.12.44Z"/>
    <path class="cls-1" d="m108.31,151.84c-.47,1.9-2.39,3.06-4.29,2.59-.03,0-.05-.01-.08-.02-1.79-.65-2.88-2.48-2.59-4.37.6-1.85,2.53-2.93,4.42-2.47,1.79.34,2.97,2.06,2.63,3.85-.03.14-.06.28-.11.42Z"/>
    <path class="cls-1" d="m131.37,71.85c-.47,1.9-2.4,3.05-4.29,2.57-.02,0-.05-.01-.07-.02-1.79-.66-2.87-2.49-2.57-4.38.59-1.89,2.55-2.99,4.46-2.5,1.78.35,2.95,2.08,2.6,3.86-.03.16-.07.31-.13.46Z"/>
    <path class="cls-1" d="m139.37,84.93c-.46,1.9-2.36,3.06-4.26,2.6-.03,0-.06-.01-.09-.02-1.8-.65-2.88-2.47-2.6-4.36.57-1.88,2.51-2.99,4.42-2.53,1.79.33,2.98,2.05,2.65,3.84-.03.16-.07.32-.12.47Z"/>
    <path class="cls-1" d="m125.49,111.4c-.49,1.87-2.4,3.01-4.28,2.55-1.83-.65-2.93-2.51-2.61-4.43.61-1.87,2.57-2.95,4.48-2.47,1.79.39,2.92,2.15,2.53,3.94-.03.14-.07.28-.12.41Z"/>
    <path class="cls-1" d="m86.02,105.5c-.45,1.9-2.35,3.07-4.25,2.63-.03,0-.06-.01-.09-.02-1.8-.64-2.9-2.47-2.62-4.36.57-1.88,2.5-2.99,4.41-2.54,1.79.32,2.98,2.02,2.67,3.81-.03.16-.07.33-.12.48Z"/>
    <path class="cls-1" d="m115.09,123.76c-.48,1.88-2.39,3.02-4.27,2.56-1.85-.63-2.97-2.51-2.65-4.44.6-1.88,2.56-2.97,4.47-2.49,1.78.35,2.94,2.08,2.59,3.86-.03.17-.08.34-.14.51Z"/>
  </g>
</svg>