<?xml version="1.0" encoding="UTF-8"?>
<svg id="_圖層_2" data-name="圖層 2" xmlns="http://www.w3.org/2000/svg" viewBox="0 0 200 200">
  <defs>
    <style>
      .cls-1 {
        fill: #81241a;
        stroke-width: 0px;
      }
    </style>
  </defs>
  <path class="cls-1" d="m178.55,57.93c-1.89-6.29-4.39-12.37-7.48-18.17-4.47-8.46-10.17-16.21-16.91-23-2.38-2.35-3.7-2.39-6-.08-4.39,4.43-8.8,8.85-13.22,13.26-4.65,4.65-9.3,9.29-13.96,13.94,0,.08,0,.15,0,.23-.05.41-.08.82-.06,1.23,0,.06.02.13.03.17.03.11.07.22.1.34,0-.08.19.28.22.38.07.08.15.18.16.19.1.09.2.18.29.28.02.02.04.04.05.05,0,0,0,0,0,0,.14.1.29.2.44.3.28.18.56.34.85.49.6.32,1.22.6,1.83.89,2.25,1.05,4.48,2.39,5.68,4.52,2.21,2.08,4.04,4.55,5.46,7.38,2.46,4.91,5.85,17.63-3.27,17.83-2.8.06-3.69,3.15-2.12,5.12,4.53,5.71,6.85,13.75,1.14,19.55-4.9,4.97-12.16,5.6-18.74,5.42-2.48-.07-3.46,2.55-2.59,4.51,6.2,14.03-14.5,17.37-23.62,13.02-1.33-.63-3.41-.5-4.1,1.08-2.87,6.55-11.99,6.9-18.02,5.39-5.79-1.46-10.66-4.92-14.49-9.39.09-.09.17-.17.26-.26-.8-.55-1.54-1.19-2.3-1.79-1.15-.21-2.29-.47-3.42-.74l-34.49,34.49c-2.16,2.15-2.16,3.64,0,5.76,5.02,4.9,10.53,9.28,16.44,13.07,9.62,6.19,20.24,10.68,31.39,13.25,7.56,1.84,15.3,2.84,23.08,3,5-.49,10.03-.79,15.03-1.5,4.44-.55,8.84-1.47,13.13-2.74,5.65-1.87,11.19-4.03,16.62-6.46,7.05-3.21,13.62-7.37,19.53-12.37,7.7-6.16,14.4-13.47,19.86-21.67,3-4.56,5.71-9.3,8.12-14.2,2.71-5.68,4.84-11.62,6.33-17.74,1.65-6.37,2.68-12.89,3.08-19.46.69-12.02-.77-24.06-4.32-35.56Zm-1.62,35.59c-.41,6.24-1.41,12.43-3,18.48-6.74,26.18-24.33,48.24-48.35,60.64-6.23,3.23-12.79,5.74-19.58,7.51-9.85,2.67-20.07,3.72-30.25,3.1-6.1-.27-12.14-1.28-18-3-5-1.6-10.12-3.12-15-5.12-5.97-2.49-11.61-5.71-16.79-9.58-2.83-2.1-5.54-4.38-8.29-6.61-.59-.55-1.14-1.14-1.67-1.75,2-2.04,3.9-4.03,5.84-5.97,8.04-8.04,16.08-16.08,24.12-24.12,5.29,6.16,12.64,10.54,20.76,11.6,6.89.9,15.66-.63,19.89-6.58,7.5,2.71,15.94,2.43,22.95-1.8,6.6-3.98,8.91-9.66,7.54-16.13,8.18-.39,16.54-2.83,21.29-10.03,4.51-6.83,3.08-14.57-.73-21.09,6.28-2.91,8.05-11.17,6.42-18.12-2.01-8.57-7.5-16.4-15.19-20.71,6.75-6.75,13.51-13.49,20.26-20.24,1.7-1.72,1.96-1.75,3.5,0,6.25,7.02,11.44,14.91,15.42,23.43,3.14,6.82,5.48,13.97,7,21.32,1.74,8.13,2.37,16.47,1.86,24.77Z"/>
  <path class="cls-1" d="m86,19.64c-.19,4.28-2.85,6.95-6.41,8.45-3.16,1.14-6.42,1.98-9.74,2.51-2.39.5-4.21-1.13-3.85-3.78.69-5.17,1.44-10.31,5.64-14.09,3.03-2.97,7.9-2.93,10.88.09,1.97,1.84,3.74,3.8,3.48,6.82Zm-5.51-.29c-.87-.88-1.58-2-2.59-2.48-.91-.24-1.88,0-2.56.65-.99,1.51-1.8,3.13-2.41,4.83-.51,1.28.38,1.74,1.38,1.35,1.73-.69,3.4-1.52,5-2.46.43-.3.6-1.02,1.18-1.89Z"/>
  <path class="cls-1" d="m33.42,75.42c3.23-2.81,7-2.73,10.54-1.18,3.01,1.5,5.86,3.28,8.53,5.33,2.01,1.39,2.08,3.83-.08,5.39-4.22,3.06-8.46,6.06-14.1,5.63-4.24-.15-7.57-3.7-7.43-7.94-.03-2.7.17-5.33,2.54-7.22Zm3.59,4.19c-.04,1.24-.36,2.52-.01,3.59.45.83,1.3,1.36,2.24,1.41,1.78-.33,3.51-.86,5.16-1.58,1.28-.51,1-1.47.03-1.93-1.69-.77-3.44-1.42-5.23-1.93-.51-.1-1.15.27-2.18.45Z"/>
  <path class="cls-1" d="m70.3,60.28c-1.45,2.31-3.04,2.78-5.05,1.03-3.4-2.91-6.81-5.91-8.2-10.37-2.04-6.5,1.46-11.39,8.23-11.71,5.08-.23,8.67,3.61,8.63,9.33-.3,4.13-1.53,8.14-3.61,11.73Zm-7.54-14.42c-.19.51-.34,1.04-.45,1.57-.15,1.37,2,5.32,3.3,5.88.34.15,1.28-.11,1.29-.34.45-1.85.76-3.73.95-5.62.13-1.03-.59-1.97-1.62-2.1-.09-.01-.18-.02-.27-.02-1.09.09-2.16.3-3.2.63Z"/>
  <path class="cls-1" d="m44.72,55.36c.47,2.68-.4,4.1-3.06,4.15-4.47.11-9.01.18-13.04-2.2-5.87-3.46-6.55-9.43-1.74-14.21,3.62-3.58,8.85-3.13,12.66,1.14,2.55,3.27,4.32,7.07,5.18,11.13Zm-15.26-5.65c.2.51.44,1,.72,1.47.81,1.12,5.05,2.61,6.39,2.16.36-.11.87-.94.73-1.12-.91-1.67-1.93-3.28-3.06-4.81-.59-.85-1.76-1.07-2.62-.47-.07.05-.14.11-.21.17-.75.79-1.4,1.67-1.95,2.61Z"/>
  <path class="cls-1" d="m166.73,71.47c.09,1.46-1.02,2.71-2.47,2.8-.1,0-.2,0-.3,0-1.55,0-2.82-1.21-2.89-2.76.16-1.54,1.39-2.76,2.93-2.91,1.53.08,2.72,1.34,2.73,2.87Z"/>
  <path class="cls-1" d="m156.31,52.12c-1.47,0-2.68-1.18-2.68-2.66,0-.09,0-.18.01-.27,0-1.5,1.2-2.73,2.7-2.77,1.54.11,2.76,1.35,2.86,2.89-.07,1.55-1.34,2.79-2.89,2.81Z"/>
  <path class="cls-1" d="m157.25,117.87c-.13-1.48.96-2.79,2.44-2.92.07,0,.15-.01.22-.01,1.57-.13,2.95,1.05,3.08,2.62.13,1.57-1.05,2.95-2.62,3.08-.1,0-.2.01-.3,0-1.5.06-2.76-1.12-2.82-2.62,0-.05,0-.11,0-.16Z"/>
  <path class="cls-1" d="m111.6,163.59c1.48-.05,2.72,1.1,2.77,2.58,0,.08,0,.16,0,.25-.18,1.52-1.4,2.7-2.92,2.82-1.54-.18-2.71-1.45-2.78-3,.06-1.52,1.34-2.71,2.86-2.65.02,0,.04,0,.07,0Z"/>
  <path class="cls-1" d="m167.94,95c.1,1.39-.95,2.59-2.34,2.69-.17.01-.35,0-.52-.02-1.49-.03-2.7-1.22-2.76-2.71.18-1.52,1.39-2.71,2.91-2.88,1.55.07,2.76,1.37,2.71,2.92Z"/>
  <path class="cls-1" d="m163.28,109.26c-1.36.09-2.53-.93-2.62-2.28-.01-.21,0-.41.03-.62.07-1.48,1.27-2.65,2.75-2.69,1.53.21,2.7,1.46,2.82,3-.08,1.51-1.36,2.67-2.88,2.6-.03,0-.07,0-.1,0Z"/>
  <path class="cls-1" d="m132,157.79c-1.53-.05-2.73-1.33-2.68-2.86,0-.05,0-.09,0-.14-.02-1.46,1.15-2.67,2.61-2.69.02,0,.04,0,.06,0,1.53.12,2.75,1.33,2.89,2.86-.17,1.51-1.38,2.69-2.89,2.83Z"/>
  <path class="cls-1" d="m68,170.31c.12,1.43-.94,2.68-2.36,2.8-.14.01-.28.01-.42,0-1.5.01-2.75-1.15-2.85-2.65.17-1.52,1.32-2.74,2.83-3,1.52.1,2.73,1.33,2.8,2.85Z"/>
  <path class="cls-1" d="m124.94,161.43c.05,1.43-1.06,2.63-2.49,2.68-.09,0-.18,0-.27,0-1.52.09-2.83-1.07-2.92-2.59s1.07-2.83,2.59-2.92c.11,0,.22,0,.33,0,1.41-.11,2.65.94,2.77,2.36.01.16.01.32,0,.47Z"/>
  <path class="cls-1" d="m45.84,162.91c-.16,1.47-1.36,2.61-2.84,2.68-1.61-.14-2.84-1.49-2.84-3.1.13-1.5,1.45-2.6,2.94-2.48.02,0,.04,0,.06,0,1.44-.05,2.65,1.08,2.69,2.52,0,.12,0,.24-.01.37Z"/>
  <path class="cls-1" d="m103,169.79c-.03,1.55-1.26,2.81-2.81,2.86-1.47-.23-2.59-1.43-2.71-2.91-.05-1.45,1.09-2.67,2.54-2.71.12,0,.24,0,.37.01,1.34-.11,2.51.88,2.62,2.22.01.18.01.35-.01.53Z"/>
  <path class="cls-1" d="m154.93,131.23c-1.44.03-2.62-1.11-2.66-2.54,0-.08,0-.16,0-.24-.13-1.5.98-2.82,2.49-2.95,1.5-.13,2.82.98,2.95,2.49.01.16.01.31,0,.47.15,1.38-.85,2.63-2.23,2.78-.19.02-.37.02-.56,0Z"/>
  <path class="cls-1" d="m88.53,174.29c-1.5-.02-2.71-1.24-2.7-2.74.16-1.56,1.44-2.76,3-2.83,1.52.08,2.68,1.38,2.59,2.9,0,.05,0,.1-.01.15.06,1.35-.99,2.5-2.34,2.56-.18,0-.36,0-.54-.04Z"/>
  <path class="cls-1" d="m148.79,135.61c1.5.03,2.7,1.26,2.68,2.76-.16,1.53-1.41,2.72-2.95,2.8-1.55-.14-2.74-1.44-2.73-3,.08-1.5,1.36-2.65,2.86-2.57.05,0,.09,0,.14.01Z"/>
  <path class="cls-1" d="m35.61,156.55c.17,1.35-.79,2.59-2.14,2.76-.2.02-.4.03-.6,0-1.47.07-2.72-1.07-2.79-2.55,0-.03,0-.06,0-.09.08-1.54,1.31-2.77,2.85-2.84,1.4-.08,2.6.99,2.68,2.39,0,.11,0,.22,0,.33Z"/>
  <path class="cls-1" d="m165.42,85.92c-1.44.09-2.68-1.01-2.77-2.44,0-.07,0-.14,0-.21,0-1.56,1.19-2.86,2.74-3,1.5.06,2.69,1.28,2.72,2.78.19,1.39-.79,2.67-2.18,2.85-.17.02-.34.03-.51.02Z"/>
  <path class="cls-1" d="m163.68,60.12c.1,1.41-.96,2.64-2.37,2.74-.1,0-.21,0-.31,0-1.35.19-2.59-.75-2.78-2.09-.03-.2-.03-.4-.01-.6-.13-1.44.93-2.71,2.36-2.84.14-.01.29-.01.43,0,1.49.07,2.67,1.3,2.68,2.79Z"/>
  <path class="cls-1" d="m150.32,36.49c1.41-.07,2.61,1.02,2.68,2.43,0,.11,0,.22,0,.33.14,1.34-.83,2.54-2.17,2.68-.16.02-.33.02-.5,0-1.46.12-2.74-.97-2.85-2.43,0-.06,0-.11,0-.17.04-1.55,1.3-2.8,2.85-2.84Z"/>
  <path class="cls-1" d="m79.63,171.85c.1,1.35-.91,2.54-2.27,2.64-.15.01-.31,0-.46,0-1.56,0-2.85-1.23-2.9-2.79.15-1.49,1.39-2.64,2.89-2.69,1.42-.1,2.65.96,2.75,2.38.01.16,0,.32,0,.47Z"/>
  <path class="cls-1" d="m140.86,149.89c-1.5.02-2.74-1.14-2.82-2.64.15-1.53,1.35-2.74,2.88-2.9,1.53.03,2.74,1.29,2.71,2.82,0,.04,0,.08,0,.12.09,1.35-.92,2.52-2.27,2.62-.17.01-.33,0-.5-.02Z"/>
  <path class="cls-1" d="m53.82,164.64c1.34-.17,2.57.78,2.74,2.12.03.21.03.41,0,.62.09,1.43-1,2.66-2.42,2.75-.08,0-.16,0-.24,0-1.55-.05-2.79-1.3-2.84-2.85-.05-1.41,1.06-2.6,2.47-2.65.1,0,.19,0,.29,0Z"/>
</svg>